<svg width="178" height="100" viewBox="0 0 178 100" fill="none" xmlns="http://www.w3.org/2000/svg">
<path fill-rule="evenodd" clip-rule="evenodd" d="M116.076 71.8177C112.748 72.7462 108.415 73.1331 104.701 73.1331C95.0294 73.1331 88.6846 68.1036 88.6846 58.8958C88.6846 50.1523 94.6425 44.5038 103.308 44.5038C105.243 44.5038 107.332 44.736 108.57 45.355V32.6652H116.076V71.8177ZM108.57 51.8545C107.409 51.3129 105.784 51.0034 103.927 51.0034C99.3625 51.0034 96.3448 53.789 96.3448 58.6637C96.3448 63.8479 99.5946 66.7882 104.933 66.7882C105.862 66.7882 107.332 66.7882 108.57 66.4787V51.8545ZM177.745 71.8177C174.418 72.7462 170.085 73.1331 166.293 73.1331C156.699 73.1331 150.276 68.1036 150.276 58.8958C150.276 50.1523 156.234 44.5038 164.9 44.5038C166.912 44.5038 168.924 44.736 170.162 45.355V32.6652H177.745V71.8177ZM170.162 51.8545C169.001 51.3129 167.454 51.0034 165.597 51.0034C160.954 51.0034 157.937 53.789 157.937 58.6637C157.937 63.8479 161.264 66.7882 166.603 66.7882C167.531 66.7882 168.924 66.7882 170.162 66.4787V51.8545ZM127.914 51.8545C129.152 51.3129 130.932 51.1581 132.402 51.1581C137.045 51.1581 140.217 53.789 140.217 58.509C140.217 64.08 136.658 66.6334 131.938 66.7108V73.1331H132.325C142.074 73.1331 147.878 67.7941 147.878 58.2768C147.878 49.6106 141.687 44.5038 132.557 44.5038C127.914 44.5038 123.349 45.5871 120.331 46.825V83.5789H127.914V51.8545Z" fill="black"/>
<path d="M33.3939 12L1.91919 28.4221L36.4646 47.8995V77.3065L33.3939 78.8342L30.7071 77.3065V51.3367L0 34.5327V68.1407L33.3939 88L66.404 69.6683V34.5327L46.0606 45.9899L42.9899 44.0804V41.0251L64.4848 28.4221L33.3939 12Z" fill="black"/>
</svg>
