<svg width="100" height="100" viewBox="0 0 100 100" fill="none" xmlns="http://www.w3.org/2000/svg">
<path d="M55.4621 50.0153C55.4943 52.9252 53.0763 55.6819 49.6015 55.6658C46.3349 55.6496 43.7889 53.1025 43.7969 50.0073C43.7969 46.6541 46.6312 44.3247 49.6416 44.3247C52.8281 44.3327 55.4943 46.8637 55.4621 50.0153Z" fill="black"/>
<path d="M49.7138 37.4656C49.3935 37.4817 49.0813 37.4978 48.7612 37.514C47.6481 37.5623 46.5674 37.7799 45.5026 38.1104C41.7795 39.2872 38.9533 42.3743 37.7763 45.1793C36.7595 47.5974 36.5674 50.0881 37.0798 52.6272C37.8644 56.5687 40.6987 59.938 44.4937 61.5178C45.7026 62.0176 46.9596 62.3077 48.2647 62.4366C49.6579 62.5737 51.0428 62.5173 52.4201 62.2512C54.8379 61.7757 56.8955 60.6553 58.6729 59.011C60.2743 57.528 61.4431 55.7869 62.0756 53.7234C62.5081 52.3127 62.6521 50.8781 62.5962 49.4191C62.5479 48.2503 62.34 47.1138 61.9557 46.0016C61.3391 44.2202 60.3064 42.6887 58.9612 41.3426C56.4231 38.8117 53.3647 37.4736 49.7138 37.4656ZM24.0534 48.0087C24.2295 45.397 24.83 42.8741 25.8709 40.456C27.0238 37.7557 28.6651 35.3618 30.6907 33.2097C32.7083 31.0737 34.9821 29.2601 37.6082 27.8737C40.0422 26.5921 42.6362 25.7538 45.3745 25.3266C47.4881 24.9961 49.6178 24.9236 51.7475 25.0767C57.1358 25.4556 61.8916 27.374 65.9909 30.7996C68.6489 33.0163 70.8587 35.5955 72.492 38.6182C73.685 40.8348 74.4856 43.1723 74.91 45.6388C75.1741 47.1784 75.2781 48.726 75.2942 50.2897C75.3022 51.8453 75.2942 53.401 75.2942 54.9566C75.3022 60.7924 75.3102 66.6201 75.3102 72.4558C75.3102 72.7298 75.2942 73.0037 75.2301 73.2698C74.966 74.2773 74.0692 74.9626 73.0044 74.9947C72.9002 74.9947 72.7962 74.9947 72.684 74.9947C64.9179 74.9947 57.1437 75.0108 49.3776 74.9868C45.5426 74.9785 41.8676 74.1967 38.4009 72.5445C36.0069 71.3998 33.8772 69.9085 31.9557 68.1193C29.842 66.1524 28.0566 63.936 26.7115 61.4049C25.5746 59.2609 24.798 57.0039 24.3817 54.626C24.2215 53.7314 24.0934 52.8368 24.0534 51.926C23.9333 49.5804 24.0534 48.0087 24.0534 48.0087Z" fill="black"/>
</svg>
