<svg width="100" height="100" viewBox="0 0 100 100" fill="none" xmlns="http://www.w3.org/2000/svg">
<path d="M54.1483 65.4942L32.0311 55.9091L27.3332 64.0482L52.2447 68.8377L54.1483 65.4942ZM51.0793 75H58.4436L64.917 63.792L71.3905 75H78.7548L64.9414 51.0403L51.0793 75ZM26.2288 65.9518L21 74.9817H48.6632L51.1159 70.7413L26.2288 65.9518ZM63.7151 48.9597L49.8713 25L44.6425 34.0482L61.238 53.2184L63.7151 48.9597ZM60.1459 55.122L43.532 35.9518L38.8401 44.0909L58.2057 58.4655L60.1459 55.122ZM57.1562 60.2898L37.7907 45.9091L33.0561 54.1092L55.1977 63.6943L57.1562 60.2898Z" fill="black"/>
</svg>
