<svg width="193" height="100" viewBox="0 0 193 100" fill="none" xmlns="http://www.w3.org/2000/svg">
<path fill-rule="evenodd" clip-rule="evenodd" d="M29.6111 63.8921H21.2086C8.10074 63.8921 17.6236 36.0519 28.6588 36.0519H41.9348C44.0634 36.0519 47.8165 36.444 49.6651 31.1784L52.5219 23H34.3165C24.4576 23 16.7833 26.473 11.2377 32.2988C1.65883 42.2697 -1.59013 57.8423 0.706548 65.2925C2.8912 72.1826 8.82896 76.7199 18.1277 76.8319L25.3538 76.888H34.2605L36.4451 70.334C38.0696 65.6846 34.4285 63.8921 29.6111 63.8921ZM131.897 52.3527L134.642 43.4461H105.346C100.472 43.4461 98.2875 44.7905 97.4472 47.5913L94.7024 56.4979H123.999C128.873 56.4979 131.057 55.1535 131.897 52.3527ZM90.3331 68.0373L87.5883 76.944H116.885C121.702 76.944 123.943 75.5996 124.783 72.7988L127.528 63.8921H98.2314C93.414 63.8921 91.2294 65.2365 90.3331 68.0373ZM138.731 31.9627L141.476 23.056H112.18C107.306 23.056 105.121 24.4004 104.281 27.2012L101.536 36.1079H130.833C135.651 36.1079 137.835 34.7635 138.731 31.9627ZM94.4783 33.7552C93.246 25.4647 88.8207 23.056 78.0655 23.056H58.4597L47.0323 56.4979H54.2584C58.5717 56.4979 60.7563 56.5539 63.053 50.3921L67.8144 36.0519H75.0966C81.3144 36.0519 79.914 43.8382 76.7771 51.4004C73.9763 58.0664 69.1028 63.9481 63.2211 63.9481H51.0655C46.192 63.9481 43.9514 65.2925 43.0551 68.0934L40.0302 77H48.9368L57.6754 76.944C65.4057 76.888 71.7356 76.3278 79.1298 69.6618C86.9721 62.5477 96.0468 44.2863 94.4783 33.7552ZM192.955 23H175.982L160.018 39.973C158.169 41.9336 156.265 43.8942 154.416 46.1909H154.248L162.202 23H148.366L129.713 76.944H143.549L149.487 59.971L155.648 54.7614L160.522 70.11C162.034 74.8714 163.603 76.944 166.964 76.944H177.551L166.684 46.8071L192.955 23Z" fill="black"/>
</svg>
