<svg width="191" height="100" viewBox="0 0 191 100" fill="none" xmlns="http://www.w3.org/2000/svg">
<g clip-path="url(#clip0)">
<path d="M128.3 23.9V75.3H146.3V55.6H153.1L168.1 75.3H190.4L168.1 48L189.4 23.9H168.1L153.1 42.9H146.3V23.9H128.3Z" fill="black"/>
<path d="M64.5 23.7L66.9 37.3C74.9 36.8 81.6 36.5 86.9 36.5C92.2 36.5 97.5 36.8 102.7 37.3L103.6 42.5H79.8V56H103.5L102.6 61.9C98.1 62.3 92.6 62.5 86.2 62.5C79.8 62.5 73.3 62.3 66.9 61.9L64.5 75.1C74.1 75.7 83 76 91.4 76C99.8 76 108 75.7 116.2 75.2C119.2 67 120.8 58.6 120.8 50C120.8 41.4 119.3 32.6 116.2 23.8C109.8 23.2 102 23 92.7 23C83.4 23 74 23.2 64.5 23.7Z" fill="black"/>
<path d="M0 23.9V75.1H18.4V38.1H39.6V75.1H58.1V23.9H0Z" fill="black"/>
</g>
<defs>
<clipPath id="clip0">
<rect width="190.4" height="100" fill="white"/>
</clipPath>
</defs>
</svg>
