<svg width="247" height="100" viewBox="0 0 247 100" fill="none" xmlns="http://www.w3.org/2000/svg">
<g clip-path="url(#clip0)">
<path d="M230.648 13.3472H215.144C210.328 13.3472 206.746 14.6581 204.63 19.4581L174.834 86.9368H195.908C195.908 86.9368 199.345 77.8633 200.124 75.8762C202.431 75.8762 222.906 75.9072 225.822 75.9072C226.421 78.4775 228.269 86.9368 228.269 86.9368H246.886L230.648 13.3472ZM205.9 60.8052C207.551 56.5781 213.895 40.2272 213.895 40.2272C213.786 40.4285 215.531 35.9691 216.568 33.1975L217.92 39.5459C217.92 39.5459 221.766 57.1252 222.571 60.8052H205.9Z" fill="black"/>
<path d="M159.603 27.3806C166.168 27.2774 170.926 28.7123 174.622 30.1987L176.434 31.0503L179.148 15.0916C175.174 13.6 168.945 12 161.172 12C141.342 12 127.365 21.9871 127.257 36.2993C127.128 46.8748 137.213 52.7794 144.831 56.3045C152.65 59.9174 155.272 62.2142 155.236 65.44C155.174 70.369 149.001 72.6297 143.236 72.6297C135.2 72.6297 130.932 71.52 124.341 68.7742L121.755 67.5974L118.932 84.0774C123.628 86.1368 132.294 87.9071 141.29 88C162.385 88 176.093 78.1316 176.237 62.8387C176.325 54.4723 170.973 48.0877 159.376 42.849C152.356 39.4323 148.062 37.1613 148.103 33.7135C148.103 30.6529 151.747 27.3806 159.603 27.3806Z" fill="black"/>
<path d="M98.8542 13.2646L86.3071 86.8956H106.374L118.932 13.2646H98.8542Z" fill="black"/>
<path d="M69.481 13.3471L49.8268 63.5613L47.7313 55.9793C43.8552 46.8439 32.8513 33.7239 19.9326 25.4555L37.9042 86.8593L59.1378 86.8232L90.7403 13.3316L69.481 13.3471Z" fill="black"/>
<path d="M40.1135 18.6168C38.9471 14.1316 35.5664 12.7948 31.3703 12.6348H0.258064L0 14.1006C24.2116 19.9742 40.2323 34.1264 46.88 51.1432L40.1135 18.6168Z" fill="black"/>
</g>
<defs>
<clipPath id="clip0">
<rect width="247" height="100" fill="white"/>
</clipPath>
</defs>
</svg>
