<svg width="128" height="100" viewBox="0 0 128 100" fill="none" xmlns="http://www.w3.org/2000/svg">
<g clip-path="url(#clip0)">
<path fill-rule="evenodd" clip-rule="evenodd" d="M58.0886 50.0916H62.8433C63.0888 48.719 62.6475 47.5422 61.1281 47.5422C59.608 47.5422 58.5298 48.3267 58.0886 50.0916ZM31.277 52.6403C30.6393 52.5402 29.2178 52.1494 27.9921 52.9829C26.7663 53.8164 26.4237 55.2854 27.6984 55.7777C28.9249 56.2489 30.7357 55.4351 30.9827 54.1582L31.277 52.6403V52.6403ZM118.575 52.1983C118.968 50.9244 118.754 49.3333 118.33 48.7687C117.155 47.2003 114.45 48.4399 113.625 51.5139C113.086 53.5227 114.263 55.0421 115.586 55.0421C117.008 55.0414 117.889 53.9143 118.575 52.1983V52.1983ZM95.9794 52.6403C95.3417 52.5402 93.9209 52.1494 92.6952 52.9829C91.4694 53.8164 91.1261 55.2854 92.4015 55.7777C93.6287 56.2489 95.4389 55.4351 95.6843 54.1582L95.9794 52.6403V52.6403Z" fill="black"/>
<path fill-rule="evenodd" clip-rule="evenodd" d="M128.381 50.0011C128.381 29.0144 111.368 12.0007 90.3817 12.0007C81.2748 12.0007 72.9882 15.1878 66.4438 20.5298C71.436 25.3495 75.2469 31.3841 77.2915 38.2053H74.1344C72.1555 32.1408 68.6798 26.7901 64.1618 22.4963C59.6136 26.8276 56.2096 32.2185 54.2543 38.187H51.0964C53.1129 31.4908 56.8084 25.4216 61.8316 20.5561C55.3033 15.2689 47.0561 12 38.0004 12C17.0144 12 0 29.0136 0 50.0004C0 70.9864 17.0136 88 38.0004 88C47.0554 88 55.3033 84.7311 61.8316 79.4439C56.8782 74.6388 53.1323 68.5962 51.0964 61.8137H54.2543C56.2098 67.7821 59.6137 73.173 64.1618 77.5044C68.6806 73.2099 72.1555 67.8599 74.1344 61.7947H77.2915C75.2469 68.616 71.436 74.6512 66.4438 79.4702C72.9882 84.8114 81.2748 87.9993 90.3817 87.9993C111.368 88 128.381 70.9864 128.381 50.0011ZM100.453 58.902L103.077 44.8417H106.394L106.741 46.2274C107.336 45.5334 108.475 44.8417 110.405 44.8417L109.367 48.5043C109.319 48.5043 109.27 48.5037 109.218 48.503C108.247 48.4908 106.586 48.4699 105.505 52.4657L104.316 58.902H100.453ZM49.6083 41.2681H53.4316L52.6471 44.9936H54.7048L54.0197 48.0324H52.059L50.9801 53.7177C50.7836 54.7967 50.8822 55.7777 53.0883 55.4344L52.8428 58.2767C52.0094 58.8158 50.8822 58.964 49.9991 58.964C49.1174 58.964 46.2247 58.4235 46.961 54.6009L49.6083 41.2681ZM66.1763 52.6403C66.6175 50.3845 67.6475 44.7978 60.9322 44.7978C54.9434 44.7978 54.0242 50.5568 53.8399 51.7112L53.8246 51.8061C53.6778 52.6892 53.5799 58.9136 60.1966 58.9136C61.8146 58.9633 64.1675 58.7668 65.0996 58.2759L65.6876 55.3854C65.0996 55.5308 62.8928 55.728 61.3727 55.728L61.2397 55.7282C59.7157 55.731 57.4159 55.7352 57.8437 52.6403H66.1763ZM45.9822 48.131L46.8639 45.2872C45.2795 44.6881 43.995 44.7249 43.3356 44.7438C43.2401 44.7465 43.1577 44.7489 43.0895 44.7489L43.0634 44.7489C42.4171 44.748 37.9498 44.7419 37.2566 48.0821C36.7175 50.6804 37.6686 51.7549 38.5802 52.1501C39.5418 52.5669 40.2309 52.9625 40.8121 53.2961C41.12 53.4729 41.3977 53.6323 41.6694 53.7681C42.6395 54.2532 42.4612 55.8756 41.1785 55.8756C41.0771 55.8756 40.9175 55.8843 40.713 55.8955C39.7306 55.9491 37.7125 56.0593 36.1302 55.5315L35.5911 58.4235C37.3559 58.9144 38.776 58.9144 40.1011 58.9144C40.1427 58.9144 40.1917 58.9149 40.2472 58.9154C41.4336 58.9274 45.6193 58.9697 46.2269 54.9435C46.5381 52.8879 45.6388 51.9529 44.9032 51.5139C44.1684 51.023 42.9426 50.3371 42.1588 49.993C41.3743 49.6504 40.7863 48.3275 42.2078 47.9352C43.0895 47.8366 44.9025 47.8366 45.9822 48.131ZM21.1794 58.9136L24.365 41.9541H18.0917L13.4341 52.248L12.6985 41.9541H6.57198L3.28773 58.9136H7.11034L9.46322 46.6598L10.4932 58.9136H14.12L19.4635 46.9542L17.2085 58.9136H21.1794ZM25.3936 45.239L24.8055 48.2778C25.0331 48.2541 25.3541 48.2128 25.7287 48.1646C26.8881 48.0154 28.5604 47.8002 29.5602 47.8366C29.6869 47.8413 29.8149 47.8438 29.9425 47.8462C31.1483 47.8692 32.3121 47.8914 31.9131 49.7972C31.7872 49.8099 31.5644 49.8031 31.2694 49.7942C29.2661 49.7335 23.9323 49.572 22.9932 54.698C22.552 57.5915 25.051 59.0612 27.0116 58.964C28.9722 58.8654 29.5113 58.62 30.1979 58.1291L30.6881 58.9136H34.2652L35.7854 51.2677C36.1776 49.356 36.8139 44.7482 30.3937 44.7482C30.195 44.7565 29.9922 44.7621 29.7802 44.7679C28.7371 44.7965 27.472 44.8311 25.3936 45.239ZM87.3515 45.8753C86.3697 45.2865 85.6853 45.1894 84.4099 45.1894C83.1359 45.1894 80.2921 46.4071 79.7545 49.8462C79.1168 53.9142 81.9102 55.9231 85.8321 54.6009L86.9592 58.032C85.6853 58.62 84.4099 58.9136 82.3024 58.9136C78.3315 58.9136 74.0188 55.3854 75.9794 48.2282C77.425 42.9548 81.9606 41.0234 84.6071 41.1213C87.7431 41.2382 88.8716 42.2974 89.8519 43.3763L87.3515 45.8753ZM119.948 46.4633C119.757 46.3236 119.586 46.1443 119.405 45.9553C118.891 45.4159 118.301 44.7978 116.957 44.7978C116.845 44.7978 116.729 44.7967 116.61 44.7956C114.504 44.7752 111.466 44.7459 109.704 50.7775C108.458 55.0363 110.977 58.9144 113.721 58.9144C114.997 58.8662 116.271 58.3263 117.054 57.7872L117.546 58.9144H121.662L124.996 41.0731H120.976L119.948 46.4633ZM90.0967 45.239L89.5072 48.2778C89.7352 48.2541 90.0568 48.2127 90.432 48.1644C91.5914 48.0152 93.262 47.8002 94.2626 47.8366C94.3892 47.8413 94.5172 47.8438 94.6447 47.8462C95.8501 47.8692 97.0151 47.8914 96.6155 49.7972C96.4896 49.8099 96.2668 49.8031 95.9717 49.7942C93.9685 49.7335 88.6347 49.572 87.6956 54.698C87.2536 57.5915 89.7526 59.0612 91.7132 58.964C93.6753 58.8654 94.2129 58.62 94.9003 58.1291L95.3912 58.9136H98.9676L100.488 51.2677C100.881 49.356 101.517 44.7482 95.0953 44.7482C94.8967 44.7566 94.6937 44.7621 94.4816 44.7679C93.4389 44.7965 92.1738 44.8311 90.0967 45.239ZM68.8845 44.9935L66.2861 58.9136L70.1103 58.9143L71.2856 52.5409C72.3464 48.6215 74.0167 48.6509 74.9849 48.6679C75.0454 48.669 75.1032 48.67 75.158 48.67L76.1383 44.9935C74.2281 44.9935 73.1009 45.6794 72.5114 46.3661L72.1688 44.9935H68.8845Z" fill="black"/>
</g>
<defs>
<clipPath id="clip0">
<rect width="128" height="100" fill="white"/>
</clipPath>
</defs>
</svg>
