<svg width="185" height="100" viewBox="0 0 185 100" fill="none" xmlns="http://www.w3.org/2000/svg">
<g clip-path="url(#clip0)">
<path d="M33.8487 21.7983C31.6793 24.3654 28.2083 26.3901 24.7374 26.1009C24.3035 22.6299 26.0028 18.942 27.9914 16.6641C30.1608 14.0247 33.9571 12.1446 37.0304 12C37.392 15.6156 35.9819 19.1589 33.8487 21.7983ZM36.9943 26.7878C31.9686 26.4986 27.666 29.6441 25.2797 29.6441C22.8572 29.6441 19.2055 26.9324 15.2283 27.0048C10.058 27.0771 5.24925 30.0057 2.60986 34.6698C-2.81355 43.9981 1.19977 57.8097 6.4424 65.4025C9.00948 69.1627 12.0827 73.2845 16.1322 73.1399C19.9648 72.9952 21.4833 70.6451 26.1113 70.6451C30.7754 70.6451 32.1132 73.1399 36.1627 73.0676C40.3568 72.9952 42.9962 69.3073 45.5632 65.5471C48.4919 61.2807 49.685 57.1227 49.7573 56.9058C49.685 56.8335 41.6584 53.7602 41.5861 44.5043C41.5138 36.7669 47.9134 33.079 48.2026 32.862C44.587 27.5109 38.9467 26.9324 36.9943 26.7878ZM66.0276 16.3026V72.6698H74.7773V53.3987H86.8896C97.9533 53.3987 105.727 45.8059 105.727 34.8145C105.727 23.823 98.098 16.3026 87.1788 16.3026H66.0276V16.3026ZM74.7773 23.6784H84.8649C92.4576 23.6784 96.7963 27.7279 96.7963 34.8506C96.7963 41.9734 92.4576 46.059 84.8287 46.059H74.7773V23.6784V23.6784ZM121.708 73.1037C127.204 73.1037 132.302 70.3197 134.616 65.9087H134.796V72.6698H142.895V44.6128C142.895 36.4776 136.387 31.235 126.372 31.235C117.08 31.235 110.21 36.55 109.957 43.8535H117.839C118.49 40.3825 121.708 38.1047 126.119 38.1047C131.47 38.1047 134.471 40.5994 134.471 45.1912V48.3007L123.552 48.9515C113.392 49.5661 107.896 53.7241 107.896 60.9553C107.896 68.2588 113.573 73.1037 121.708 73.1037ZM124.058 66.4148C119.394 66.4148 116.429 64.1732 116.429 60.7383C116.429 57.1951 119.285 55.1342 124.745 54.8088L134.471 54.1941V57.3758C134.471 62.6546 129.988 66.4148 124.058 66.4148ZM153.706 88C162.239 88 166.252 84.746 169.759 74.8754L185.126 31.7774H176.231L165.927 65.0771H165.746L155.441 31.7774H146.294L161.118 72.8145L160.323 75.3092C158.985 79.5395 156.815 81.1665 152.947 81.1665C152.26 81.1665 150.922 81.0942 150.38 81.0219V87.7831C150.886 87.9277 153.055 88 153.706 88Z" fill="black"/>
</g>
<defs>
<clipPath id="clip0">
<rect width="185" height="100" fill="white"/>
</clipPath>
</defs>
</svg>
