<svg width="279" height="100" viewBox="0 0 279 100" fill="none" xmlns="http://www.w3.org/2000/svg">
<path fill-rule="evenodd" clip-rule="evenodd" d="M25.7647 12.013C28.2539 11.9981 35.6515 11.3318 38.7849 21.9073C40.8957 29.0311 44.258 40.7001 48.8718 56.9145H50.7508C55.6988 39.8202 59.0977 28.1511 60.9478 21.9073C64.1139 11.2216 72.0292 12.0132 75.1953 12.0132L99.6227 12.0132V87.9998H74.7256V43.2197H73.0561L59.1772 87.9998H40.4454L26.5665 43.1865H24.897V87.9998H0V12.0132L25.7647 12.013ZM135.374 12.0132V56.8267H137.36L154.243 19.9769C157.52 12.6437 164.505 12.0132 164.505 12.0132H188.598V88H163.181V43.1865H161.194L144.643 80.0363C141.366 87.3364 134.05 88 134.05 88H109.957V12.0132H135.374ZM276.45 48.1226C272.905 58.1695 261.771 65.3647 249.444 65.3647H222.789V88H198.619V48.1226H276.45Z" fill="black"/>
<path fill-rule="evenodd" clip-rule="evenodd" d="M250.61 12.0132H197.352C198.619 28.9305 213.188 43.4127 228.269 43.4127H278.13C281.007 29.3525 271.102 12.0132 250.61 12.0132Z" fill="black"/>
</svg>
