<svg width="191" height="100" viewBox="0 0 191 100" fill="none" xmlns="http://www.w3.org/2000/svg">
<g clip-path="url(#clip0)">
<path d="M90.5148 49.1297V71.4071H83.4475V16.3917H102.191C104.429 16.345 106.653 16.7418 108.736 17.5592C110.819 18.3767 112.72 19.5986 114.329 21.1545C115.953 22.6159 117.246 24.4081 118.121 26.4108C118.995 28.4134 119.431 30.5801 119.399 32.7651C119.445 34.9618 119.016 37.1426 118.141 39.158C117.266 41.1734 115.965 42.9758 114.329 44.4415C111.051 47.567 107.005 49.1282 102.191 49.1253H90.5148V49.1297ZM90.5148 23.1649V42.3696H102.367C103.666 42.4081 104.959 42.175 106.163 41.6852C107.367 41.1954 108.456 40.4597 109.36 39.5251C110.258 38.6513 110.973 37.6062 111.461 36.4514C111.948 35.2967 112.2 34.0559 112.2 32.8024C112.2 31.5489 111.948 30.308 111.461 29.1533C110.973 27.9986 110.258 26.9535 109.36 26.0796C108.467 25.1254 107.383 24.3716 106.177 23.8684C104.971 23.3651 103.673 23.1238 102.367 23.1605H90.5148V23.1649Z" fill="black"/>
<path d="M135.684 32.5368C140.908 32.5368 145.031 33.9327 148.054 36.7245C151.077 39.5163 152.587 43.3441 152.584 48.2078V71.4071H145.824V66.1834H145.517C142.591 70.4853 138.699 72.6362 133.841 72.6362C129.694 72.6362 126.225 71.4071 123.433 68.9489C122.093 67.8207 121.022 66.4077 120.297 64.813C119.573 63.2182 119.213 61.482 119.245 59.7307C119.245 55.8356 120.717 52.738 123.661 50.4378C126.605 48.1376 130.535 46.9846 135.452 46.9787C139.648 46.9787 143.104 47.7469 145.82 49.2833V47.6679C145.828 46.474 145.57 45.2933 145.065 44.2114C144.56 43.1294 143.821 42.1734 142.901 41.4127C141.032 39.7265 138.596 38.8065 136.079 38.8359C132.132 38.8359 129.008 40.5011 126.707 43.8314L120.483 39.9114C123.907 34.995 128.974 32.5368 135.684 32.5368ZM126.541 59.8843C126.536 60.7838 126.746 61.6713 127.154 62.473C127.562 63.2748 128.155 63.9675 128.885 64.4934C130.448 65.7229 132.388 66.3743 134.376 66.3371C137.359 66.3321 140.217 65.145 142.326 63.0361C144.667 60.8325 145.838 58.247 145.838 55.2796C143.634 53.5237 140.561 52.6458 136.619 52.6458C133.748 52.6458 131.355 53.3379 129.438 54.7221C127.502 56.1268 126.541 57.8343 126.541 59.8843V59.8843Z" fill="black"/>
<path d="M191.389 33.7659L167.79 88H160.494L169.252 69.0236L153.734 33.7659H161.416L172.632 60.8062H172.785L183.694 33.7659H191.389Z" fill="black"/>
<path fill-rule="evenodd" clip-rule="evenodd" d="M43.7302 29.2534C40.4684 26.1419 36.1133 24.4389 31.606 24.5126C23.3623 24.5126 16.3652 30.0699 13.8631 37.5586L13.863 37.5586C12.5402 41.4827 12.5402 45.7323 13.863 49.6564L13.8631 49.6564C16.3652 57.1452 23.3623 62.7025 31.606 62.7025C35.8771 62.7025 39.5293 61.6051 42.365 59.6824V59.678C44.011 58.5861 45.4189 57.1722 46.5037 55.5215C47.5886 53.8708 48.328 52.0176 48.6773 50.0734H31.606V37.9009H61.4116C61.7765 40.0236 61.9586 42.1736 61.956 44.3274C61.956 53.9451 58.5189 62.0791 52.5533 67.5793H52.5477L52.5534 67.5837C47.3166 72.4124 40.1351 75.213 31.606 75.213C25.7477 75.2127 20.0046 73.5842 15.0182 70.5092C10.0317 67.4342 5.998 63.0338 3.36743 57.7992L3.36737 57.7992C1.15444 53.3957 0.00195312 48.5358 0.00195312 43.6075C0.00195312 38.6792 1.15444 33.8193 3.36737 29.4158H3.36745C5.99802 24.1812 10.0317 19.7808 15.0182 16.7059C20.0046 13.6309 25.7477 12.0023 31.606 12.0021C39.453 11.9104 47.0309 14.8601 52.7509 20.2327L43.7302 29.2534Z" fill="black"/>
</g>
<defs>
<clipPath id="clip0">
<rect width="191" height="100" fill="white"/>
</clipPath>
</defs>
</svg>
