<svg width="15" height="9" viewBox="0 0 15 9" fill="none" xmlns="http://www.w3.org/2000/svg">
<path d="M0.840225 4.2218C1.4531 4.60462 2.19758 4.77187 2.95334 4.81647C4.77694 4.92425 6.60054 5.08779 8.43165 4.96514C8.65725 4.98 8.88661 4.99487 9.11221 5.00602C10.2553 5.05434 11.3983 5.07664 12.5376 5.00602C11.5938 5.8497 10.7516 6.81231 9.80781 7.65971C9.74389 7.71546 9.74389 7.9013 9.78149 7.99421C9.85293 8.18005 10.0372 8.2135 10.2365 8.18376C10.8832 8.08341 11.4584 7.75263 11.9548 7.32893C12.9136 6.50383 13.8987 5.70475 14.786 4.8016L14.8011 4.78674C15.0718 4.5117 15.0643 4.07314 14.786 3.80554C14.5642 3.59369 14.3386 3.38927 14.1055 3.18857C13.9776 3.04362 13.8498 2.89496 13.7182 2.75001C12.8835 1.83943 12.0187 0.954861 11.0373 0.200379C10.7591 -0.0151873 10.4282 -0.0969534 10.2064 0.159495C10.0033 0.393645 10.0184 0.728145 10.2477 1.00689C10.6613 1.50493 11.0712 2.01039 11.5374 2.46011C12.0074 2.90982 12.4924 3.34467 12.9775 3.77581C12.3684 3.72377 11.7592 3.67917 11.1501 3.6866C9.93941 3.70147 8.72869 3.7758 7.51798 3.82412C5.34846 3.39671 3.1263 3.64201 0.930465 3.55281C0.832705 3.54909 0.678545 3.67917 0.629665 3.76837C0.531905 3.95049 0.655985 4.10659 0.840225 4.2218Z" fill="#666666"/>
</svg>
