<svg width="15" height="9" viewBox="0 0 15 9" fill="none" xmlns="http://www.w3.org/2000/svg">
<path d="M14.1593 3.97151C13.5464 3.58869 12.8019 3.42144 12.0462 3.37684C10.2226 3.26906 8.39898 3.10553 6.56786 3.22818C6.34226 3.21331 6.1129 3.19844 5.8873 3.18729C4.74426 3.13898 3.60122 3.11668 2.46194 3.18729C3.4057 2.34361 4.24794 1.381 5.1917 0.533601C5.25562 0.477851 5.25562 0.292018 5.21802 0.199102C5.14658 0.0132686 4.96234 -0.0201816 4.76306 0.0095517C4.11634 0.109901 3.54106 0.440684 3.04474 0.864383C2.08594 1.68948 1.10083 2.48856 0.213467 3.39171L0.198427 3.40658C-0.072293 3.68161 -0.064773 4.12018 0.213467 4.38778C0.435306 4.59962 0.660906 4.80404 0.894026 5.00474C1.02187 5.14969 1.14971 5.29836 1.2813 5.44331C2.11602 6.35389 2.98082 7.23845 3.96218 7.99293C4.24042 8.2085 4.5713 8.29027 4.79314 8.03382C4.99618 7.79967 4.98114 7.46517 4.75178 7.18642C4.33818 6.68839 3.92834 6.18292 3.4621 5.73321C2.9921 5.28349 2.50706 4.84864 2.02202 4.41751C2.63114 4.46954 3.24026 4.51414 3.84938 4.50671C5.0601 4.49184 6.27082 4.41751 7.48154 4.36919C9.65105 4.79661 11.8732 4.55131 14.069 4.64051C14.1668 4.64422 14.321 4.51414 14.3698 4.42494C14.4676 4.24283 14.3435 4.08673 14.1593 3.97151Z" fill="#666666"/>
</svg>
