<svg width="48" height="48" viewBox="0 0 48 48" fill="none" xmlns="http://www.w3.org/2000/svg">
<circle cx="24" cy="24" r="24" fill="#C9002E"/>
<path d="M19.7578 34.5938C20.1745 34.0208 20.6302 33.5911 21.125 33.3047C21.6458 33.0182 22.1667 32.7839 22.6875 32.6016C23.2344 32.4193 23.7682 32.25 24.2891 32.0938C24.8359 31.9115 25.3698 31.625 25.8906 31.2344C26.1771 31.0781 26.5807 30.8438 27.1016 30.5312C27.6224 30.2188 28.1302 29.8802 28.625 29.5156C29.1458 29.125 29.5885 28.7474 29.9531 28.3828C30.3438 28.0182 30.5391 27.7057 30.5391 27.4453C30.5391 27.4193 30.526 27.4062 30.5 27.4062C30.4479 27.4062 30.4219 27.3932 30.4219 27.3672L30.3438 27.2891C30.2135 27.237 30.0052 27.1719 29.7188 27.0938C29.4323 27.0156 29.263 26.9635 29.2109 26.9375C25.8516 26.5469 23.1432 26.2083 21.0859 25.9219C19.0547 25.6094 17.4792 25.2839 16.3594 24.9453C15.2656 24.6068 14.5365 24.2161 14.1719 23.7734C13.8073 23.3307 13.625 22.7708 13.625 22.0938C13.625 21.8333 13.6771 21.5469 13.7812 21.2344C13.8854 20.9219 14.0026 20.6094 14.1328 20.2969C14.2891 19.9844 14.4453 19.6979 14.6016 19.4375C14.7578 19.1771 14.901 18.9688 15.0312 18.8125C15.4479 18.2917 15.9948 17.8229 16.6719 17.4062C17.349 16.9896 18.0781 16.625 18.8594 16.3125C19.6406 16 20.4219 15.7266 21.2031 15.4922C22.0104 15.2578 22.7396 15.0495 23.3906 14.8672C24.1198 14.8151 24.849 14.6458 25.5781 14.3594C26.3333 14.0469 27.0755 13.8385 27.8047 13.7344C28.1693 13.7344 28.4688 13.8776 28.7031 14.1641C28.9375 14.4505 29.0547 14.75 29.0547 15.0625C29.0547 15.5052 28.9635 15.8438 28.7812 16.0781C28.625 16.2865 28.4036 16.4557 28.1172 16.5859C27.8568 16.6901 27.5573 16.7812 27.2188 16.8594C26.8802 16.9115 26.5417 16.9766 26.2031 17.0547C25.9948 17.1068 25.7083 17.1849 25.3438 17.2891C24.9792 17.3672 24.6146 17.4583 24.25 17.5625C23.8854 17.6667 23.5599 17.7578 23.2734 17.8359C22.987 17.9141 22.8177 17.9661 22.7656 17.9922C21.9583 18.3307 21.1901 18.6562 20.4609 18.9688C19.7578 19.2552 19.1328 19.5547 18.5859 19.8672C18.0651 20.1797 17.6484 20.5182 17.3359 20.8828C17.0495 21.2214 16.9193 21.599 16.9453 22.0156V22.0547C17.2057 22.4193 17.7917 22.6927 18.7031 22.875C19.6146 23.0573 20.6823 23.2135 21.9062 23.3438C23.1562 23.474 24.4583 23.6042 25.8125 23.7344C27.1927 23.8646 28.4557 24.0599 29.6016 24.3203C30.7474 24.5807 31.6979 24.9323 32.4531 25.375C33.2083 25.8177 33.599 26.4167 33.625 27.1719C33.625 27.4583 33.5599 27.7969 33.4297 28.1875C33.3255 28.5781 33.1693 28.8776 32.9609 29.0859C32.3099 29.8151 31.5286 30.5703 30.6172 31.3516C29.7318 32.1328 28.7682 32.862 27.7266 33.5391C26.6849 34.1901 25.6042 34.75 24.4844 35.2188C23.3906 35.6615 22.3099 35.9219 21.2422 36C20.8776 36 20.5391 35.8698 20.2266 35.6094C19.9141 35.3229 19.7578 34.9844 19.7578 34.5938Z" fill="white"/>
</svg>
