<svg width="15" height="16" viewBox="0 0 15 16" fill="none" xmlns="http://www.w3.org/2000/svg">
<path d="M0.69207 13.9572C0.658084 13.9788 0.627188 14.0003 0.590113 14.0157L0.54068 14.0434L0.478888 14.0772L0.46035 14.0864L0.451081 14.0926L0.417096 14.1141C0.392379 14.1325 0.367662 14.151 0.342945 14.1725C0.0247168 14.4524 -0.0278064 14.8644 0.111226 15.1904C0.179197 15.3565 0.30896 15.5071 0.475798 15.6025C0.556128 15.6486 0.645726 15.6855 0.729145 15.7009L0.794027 15.7132L0.834191 15.7193L0.874356 15.7255C0.963955 15.7378 1.15551 15.7501 1.27291 15.7501C1.53553 15.7501 1.79197 15.7224 2.04222 15.6763C2.54274 15.5779 3.01545 15.3995 3.4449 15.1504C3.68898 15.012 3.88362 14.8306 3.98558 14.6738C4.08754 14.5077 4.0999 14.3662 3.99794 14.2678C3.80638 14.0864 3.43872 14.1541 3.00618 14.3324C2.61689 14.4954 2.19979 14.5969 1.79197 14.6307C1.73944 14.6369 1.69001 14.6399 1.63749 14.6399C1.77034 14.52 1.89083 14.3909 1.99588 14.2555C2.30484 13.865 2.52111 13.4375 2.69413 13.0132L2.69722 13.007C2.7621 12.8502 2.73738 12.6657 2.61998 12.5273L2.33265 12.1921C2.2863 12.1367 2.23378 12.0814 2.19052 12.023L2.06385 11.8415C1.98043 11.7185 1.88774 11.6047 1.81359 11.4756L1.59423 11.0881C1.40577 10.4792 1.26674 9.87034 1.19258 9.25531C1.13388 8.6372 1.13697 8.01601 1.2173 7.40405L1.29454 6.94585C1.32853 6.79517 1.37178 6.64756 1.40886 6.49688C1.43975 6.34619 1.50463 6.20166 1.55407 6.05712L1.63131 5.83879C1.65911 5.76498 1.69619 5.69733 1.72709 5.6266C1.79506 5.48822 1.85376 5.34368 1.93409 5.21145L2.17508 4.81475C2.25541 4.68252 2.35427 4.57797 2.44078 4.45803C2.48713 4.39961 2.52729 4.34118 2.57672 4.28275L2.75283 4.09824C2.83625 4.01213 2.88568 3.79995 2.86715 3.70462C2.83625 3.51703 2.63543 3.54471 2.40989 3.64926C2.22451 3.73844 2.03605 3.8307 1.86612 3.96908C1.69619 4.10439 1.50463 4.252 1.36251 4.43036C1.21421 4.60872 1.05046 4.78708 0.933059 4.99926C0.806385 5.20838 0.679711 5.42056 0.593203 5.65428C0.53759 5.79266 0.475798 5.93104 0.423275 6.06943L0.290422 6.49995C0.268795 6.57068 0.244078 6.64448 0.225541 6.71521L0.179197 6.93663L0.0865087 7.37945L0.0339856 7.82843L0.00926879 8.05291L0.00617919 8.28048L0 8.7356L0.0370752 9.19073L0.0556128 9.41829L0.0957775 9.64278L0.179197 10.0918C0.219361 10.2394 0.262616 10.3839 0.30587 10.5315L0.370752 10.7498C0.395469 10.8206 0.426364 10.8913 0.454171 10.962L0.630278 11.3864C0.698249 11.5248 0.775489 11.657 0.84655 11.7923C0.982492 12.066 1.17714 12.309 1.35015 12.558C1.4243 12.6688 1.50154 12.7764 1.58187 12.884C1.43048 13.1639 1.25747 13.4191 1.06282 13.6282C0.954686 13.7604 0.824892 13.8711 0.69207 13.9572Z" fill="#666666"/>
<path d="M5.46543 6.68146C6.29344 6.77064 7.12145 6.90595 7.95565 6.80447C8.0576 6.81677 8.16265 6.82907 8.26461 6.83829C8.9196 6.89057 9.57151 6.90595 10.2234 6.77987C10.4088 6.74296 10.5633 6.60151 10.5478 6.32474C10.5355 6.0695 10.4026 5.88192 10.2141 5.85424C9.87429 5.80196 9.52825 5.74354 9.1884 5.74969C8.63845 5.76199 8.0885 5.82349 7.53855 5.86347C6.55297 5.50982 5.54267 5.71278 4.54473 5.63898C4.50147 5.63591 4.43041 5.74354 4.40879 5.81734C4.36553 5.96802 4.42114 6.0941 4.50765 6.18943C4.78572 6.50618 5.12251 6.64456 5.46543 6.68146Z" fill="#666666"/>
<path d="M4.50461 8.19139C4.78267 8.50813 5.12253 8.64652 5.46548 8.68342C6.29349 8.7726 7.1215 8.90791 7.95569 8.80643C8.05765 8.81873 8.16269 8.83103 8.26465 8.84025C8.91965 8.89253 9.57155 8.90791 10.2235 8.78183C10.4088 8.74492 10.5633 8.60347 10.5479 8.3267C10.5355 8.07146 10.4027 7.88387 10.2142 7.8562C9.87433 7.80392 9.5283 7.74549 9.18844 7.75164C8.63849 7.76394 8.08854 7.82544 7.5386 7.86542C6.55301 7.51178 5.54272 7.71474 4.54477 7.64093C4.50152 7.63786 4.43046 7.74549 4.40883 7.81929C4.36558 7.9669 4.42116 8.09606 4.50461 8.19139Z" fill="#666666"/>
<path d="M4.50461 10.1931C4.78267 10.5098 5.12253 10.6482 5.46548 10.6851C6.29349 10.7743 7.1215 10.9096 7.95569 10.8081C8.05765 10.8204 8.16269 10.8327 8.26465 10.842C8.91965 10.8942 9.57155 10.9096 10.2235 10.7835C10.4088 10.7466 10.5633 10.6052 10.5479 10.3284C10.5355 10.0732 10.4027 9.88558 10.2142 9.85791C9.87433 9.80563 9.5283 9.7472 9.18844 9.75335C8.63849 9.76565 8.08854 9.82715 7.5386 9.86713C6.55301 9.51348 5.54272 9.71645 4.54477 9.64264C4.50152 9.63957 4.43046 9.7472 4.40883 9.821C4.36558 9.96861 4.42116 10.0978 4.50461 10.1931Z" fill="#666666"/>
<path d="M4.23278 13.8589C3.97017 13.8896 4.15863 14.1357 4.48922 14.4186C5.03917 14.8552 5.77758 15.2181 6.61177 15.3965C7.44596 15.5748 8.37284 15.5687 9.26574 15.3626C10.3471 15.1289 11.3636 14.6215 12.2379 13.9388C12.3461 13.8497 12.448 13.7574 12.5531 13.6652L12.7106 13.5268L12.7292 13.5083L12.7354 13.5052L12.7384 13.5022L12.7601 13.4806L12.7693 13.4714L12.8033 13.4376L12.8713 13.3669L13.1401 13.0839C13.1833 13.0347 13.2297 12.9948 13.2729 12.9363L13.4058 12.7641L13.6715 12.4197C13.7611 12.3059 13.8229 12.1829 13.9001 12.0661C13.9743 11.9461 14.0484 11.8293 14.1195 11.7063L14.3049 11.328C14.552 10.8237 14.7158 10.2825 14.8456 9.73815C14.8764 9.59977 14.8919 9.46139 14.9135 9.32301C14.9321 9.18462 14.963 9.04624 14.9691 8.90478L14.9908 8.48348L15 8.2713C15 8.20057 14.9939 8.12984 14.9908 8.05911C14.9599 6.93359 14.6633 5.81423 14.1226 4.82402C13.9897 4.58109 13.8569 4.33507 13.7086 4.09828L13.4614 3.76001C13.3811 3.64623 13.3038 3.52938 13.205 3.42789L12.9856 3.17881L12.8744 3.05272L12.8188 2.99122L12.8064 2.97584L12.8002 2.96662L12.7971 2.96354L12.7941 2.96047L12.7693 2.93894L12.7415 2.91434L12.2905 2.49612C12.1236 2.35773 11.9259 2.21628 11.7436 2.07789C11.6973 2.04407 11.6509 2.00716 11.6046 1.97641L11.4624 1.89031L11.1751 1.7181C10.4027 1.27527 9.5438 0.973905 8.66327 0.838597C7.78273 0.700215 6.87748 0.724816 6.00621 0.906251C5.13804 1.09076 4.30693 1.44441 3.57779 1.93028C3.36152 2.05637 3.18541 2.21935 3.02475 2.36388C2.94442 2.43769 2.87027 2.50534 2.80539 2.57607C2.7436 2.64988 2.69107 2.7206 2.64473 2.78826C2.45935 3.0558 2.40065 3.24953 2.52733 3.32641C2.76831 3.46787 3.32753 3.13575 4.10611 2.69908C5.51188 1.90876 7.1988 1.68427 8.75595 1.99179C9.38623 2.1148 9.9887 2.33928 10.5603 2.63142L10.9774 2.86821C11.1133 2.95124 11.2307 3.04657 11.3605 3.13268C11.4254 3.17881 11.4872 3.21878 11.552 3.26799L11.7467 3.43712L11.9413 3.60625L12.0402 3.69236L12.0587 3.70774L12.068 3.71696L12.1082 3.76001C12.5685 4.21206 12.9485 4.73792 13.2637 5.2976C13.5695 5.86651 13.7796 6.48462 13.9094 7.1181C13.9218 7.07198 13.9341 7.02585 13.9434 6.97972C13.9372 7.032 13.9218 7.07813 13.9094 7.1181L13.9403 7.5517C13.9527 7.69624 13.9372 7.84077 13.9403 7.9853C13.9496 8.27437 13.897 8.56036 13.8754 8.84635L13.7951 9.27073C13.7796 9.34146 13.7704 9.41218 13.7549 9.48291L13.6962 9.68895C13.6561 9.82733 13.6221 9.96572 13.5757 10.101L13.4212 10.5008C13.378 10.6361 13.3038 10.7622 13.242 10.8883L13.1463 11.0789C13.1154 11.1435 13.0845 11.2081 13.0443 11.2665L12.8188 11.6294L12.7632 11.7186L12.7014 11.7985L12.5778 11.9615L12.4573 12.1245C12.4357 12.1522 12.4202 12.1798 12.3955 12.2075L12.3152 12.2936L11.9969 12.638L11.9568 12.6811L11.9413 12.6995L11.9382 12.7026L11.8579 12.7734L11.7003 12.9179L11.5428 13.0624L11.3728 13.1916L11.2029 13.3207L11.1195 13.3853L11.0299 13.4437L10.6684 13.6744L10.2915 13.8743C10.1679 13.945 10.032 13.9911 9.90219 14.0495C9.37387 14.2679 8.81775 14.4186 8.24617 14.4924C7.67459 14.557 7.09684 14.5477 6.53144 14.4616C6.39241 14.4339 6.2472 14.4216 6.10817 14.3847L5.69416 14.2771L5.28943 14.1357C5.15348 14.0895 5.03917 14.028 4.91249 13.9757C4.86924 13.9573 4.81672 13.9419 4.75801 13.9265C4.69622 13.905 4.62825 13.8866 4.56337 13.8712C4.42431 13.865 4.30072 13.8497 4.23278 13.8589Z" fill="#666666"/>
</svg>
