<svg viewBox="0 0 18 18" fill="none" xmlns="http://www.w3.org/2000/svg">
<path d="M0.784346 15.0385C0.745829 15.063 0.710813 15.0875 0.668795 15.105L0.61277 15.1365L0.542739 15.175L0.52173 15.1855L0.511225 15.1926L0.472708 15.2171C0.444696 15.2381 0.416684 15.2591 0.388671 15.2836C0.0280124 15.6022 -0.0315139 16.0714 0.126056 16.4426C0.20309 16.6317 0.350154 16.8033 0.539238 16.9118C0.630278 16.9643 0.731823 17.0064 0.826364 17.0239L0.899897 17.0379L0.945417 17.0449L0.990937 17.0519C1.09248 17.0659 1.30958 17.0799 1.44264 17.0799C1.74027 17.0799 2.0309 17.0484 2.31452 16.9958C2.88177 16.8838 3.41751 16.6807 3.90422 16.3971C4.18084 16.2395 4.40144 16.0329 4.51699 15.8543C4.63254 15.6653 4.64655 15.5042 4.531 15.3921C4.3139 15.1855 3.89722 15.2626 3.407 15.4657C2.96581 15.6513 2.4931 15.7668 2.0309 15.8053C1.97137 15.8123 1.91534 15.8158 1.85582 15.8158C2.00638 15.6793 2.14295 15.5322 2.262 15.3781C2.61215 14.9334 2.85726 14.4467 3.05335 13.9635L3.05685 13.9565C3.13038 13.7779 3.10237 13.5678 2.96931 13.4103L2.64367 13.0286C2.59114 12.9656 2.53162 12.9025 2.48259 12.836L2.33903 12.6294C2.24449 12.4894 2.13944 12.3598 2.05541 12.2127L1.8068 11.7715C1.5932 11.0782 1.43563 10.3849 1.3516 9.68462C1.28507 8.98081 1.28857 8.2735 1.37961 7.57669L1.46715 7.05496C1.50566 6.88339 1.55469 6.71531 1.5967 6.54374C1.63172 6.37216 1.70525 6.20759 1.76128 6.04301L1.84882 5.7944C1.88033 5.71037 1.92235 5.63333 1.95736 5.5528C2.0344 5.39523 2.10093 5.23066 2.19197 5.08009L2.46509 4.62839C2.55613 4.47782 2.66818 4.35877 2.76622 4.22221C2.81874 4.15568 2.86426 4.08915 2.92029 4.02262L3.11988 3.81253C3.21442 3.71449 3.27044 3.47288 3.24943 3.36433C3.21442 3.15074 2.98682 3.18225 2.7312 3.3013C2.52111 3.40285 2.30752 3.5079 2.11493 3.66547C1.92235 3.81953 1.70525 3.98761 1.54418 4.1907C1.37611 4.39379 1.19052 4.59688 1.05747 4.83848C0.913903 5.07659 0.77034 5.31819 0.672296 5.58431C0.609269 5.74188 0.539238 5.89945 0.479712 6.05702L0.329145 6.54724C0.304634 6.62777 0.276622 6.71181 0.255613 6.79235L0.20309 7.04446L0.0980432 7.54868L0.038517 8.0599L0.0105046 8.31552L0.00700309 8.57463L0 9.09286L0.0420185 9.61109L0.0630278 9.8702L0.108548 10.1258L0.20309 10.637C0.24861 10.8051 0.297631 10.9697 0.346653 11.1378L0.420185 11.3864C0.448198 11.4669 0.483213 11.5474 0.514727 11.628L0.714315 12.1112C0.791349 12.2688 0.878888 12.4193 0.959423 12.5734C1.11349 12.885 1.33409 13.1617 1.53017 13.4453C1.61421 13.5713 1.70175 13.6939 1.79279 13.8164C1.62121 14.1351 1.42513 14.4257 1.20453 14.6638C1.08198 14.8144 0.934877 14.9404 0.784346 15.0385Z" fill="#3A3A3A"></path>
<path d="M4.87308 15.0839C4.56418 15.1193 4.78586 15.4024 5.1747 15.7279C5.82156 16.2304 6.6901 16.6479 7.67129 16.8531C8.65248 17.0584 9.7427 17.0513 10.7929 16.8142C12.0648 16.5453 13.2605 15.9614 14.2889 15.1759C14.4161 15.0733 14.536 14.9671 14.6596 14.861L14.8449 14.7017L14.8667 14.6805L14.874 14.677L14.8776 14.6734L14.903 14.6487L14.9139 14.6381L14.9539 14.5991L15.0339 14.5177L15.35 14.1922C15.4009 14.1356 15.4554 14.0896 15.5063 14.0224L15.6626 13.8242L15.9751 13.4279C16.0805 13.297 16.1531 13.1554 16.244 13.021C16.3312 12.883 16.4184 12.7485 16.502 12.607L16.7201 12.1717C17.0108 11.5914 17.2034 10.9686 17.356 10.3423C17.3924 10.1831 17.4105 10.0239 17.436 9.86463C17.4578 9.7054 17.4941 9.54617 17.5014 9.3834L17.5268 8.89863L17.5377 8.65447C17.5377 8.57308 17.5305 8.4917 17.5268 8.41031C17.4905 7.11523 17.1416 5.82722 16.5057 4.68783C16.3494 4.40829 16.1931 4.12521 16.0187 3.85274L15.728 3.46351C15.6335 3.33258 15.5426 3.19812 15.4263 3.08135L15.1683 2.79473L15.0375 2.64966L14.9721 2.57889L14.9575 2.56119L14.9503 2.55058L14.9466 2.54704L14.943 2.5435L14.9139 2.51873L14.8812 2.49042L14.3507 2.00919C14.1544 1.84996 13.9218 1.68719 13.7074 1.52796C13.6529 1.48903 13.5984 1.44657 13.5439 1.41119L13.3767 1.31211L13.0388 1.11395C12.1303 0.604411 11.12 0.257639 10.0843 0.101946C9.04859 -0.0572862 7.98382 -0.0289783 6.95902 0.179792C5.93785 0.392102 4.96029 0.799028 4.10266 1.35811C3.84828 1.50319 3.64114 1.69073 3.45217 1.85704C3.35768 1.94196 3.27046 2.01981 3.19415 2.10119C3.12147 2.18611 3.05969 2.2675 3.00518 2.34535C2.78714 2.6532 2.71809 2.87612 2.86709 2.96458C3.15054 3.12735 3.8083 2.7452 4.72408 2.24273C6.37757 1.33334 8.36176 1.07503 10.1933 1.42888C10.9347 1.57042 11.6433 1.82873 12.3156 2.16488L12.8062 2.43735C12.9661 2.53289 13.1042 2.64258 13.2568 2.74166C13.3331 2.79473 13.4058 2.84073 13.4821 2.89735L13.7111 3.09197L13.94 3.28658L14.0563 3.38566L14.0781 3.40335L14.089 3.41397L14.1363 3.46351C14.6777 3.98367 15.1247 4.58875 15.4954 5.23275C15.8552 5.88737 16.1023 6.59861 16.2549 7.32754C16.2694 7.27446 16.284 7.22138 16.2949 7.16831C16.2876 7.22846 16.2694 7.28154 16.2549 7.32754L16.2912 7.82646C16.3058 7.99277 16.2876 8.15908 16.2912 8.32539C16.3021 8.65801 16.2404 8.98709 16.2149 9.31617L16.1204 9.80448C16.1023 9.88586 16.0914 9.96725 16.0732 10.0486L16.0042 10.2857C15.9569 10.4449 15.9169 10.6042 15.8624 10.7599L15.6807 11.2199C15.6298 11.3756 15.5426 11.5206 15.4699 11.6657L15.3573 11.8851C15.321 11.9594 15.2846 12.0337 15.2374 12.101L14.9721 12.5185L14.9067 12.6211L14.834 12.7131L14.6886 12.9007L14.5469 13.0882C14.5215 13.12 14.5033 13.1519 14.4742 13.1837L14.3797 13.2828L14.0054 13.6791L13.9582 13.7287L13.94 13.7499L13.9364 13.7534L13.8419 13.8348L13.6566 14.0011L13.4712 14.1674L13.2714 14.316L13.0715 14.4647L12.9734 14.539L12.868 14.6062L12.4428 14.8716L11.9994 15.1016C11.8541 15.183 11.6942 15.2361 11.5415 15.3033C10.9201 15.5545 10.266 15.7279 9.5937 15.8128C8.9214 15.8871 8.24184 15.8765 7.57681 15.7774C7.41327 15.7456 7.24247 15.7314 7.07894 15.689L6.59198 15.5651L6.11592 15.4024C5.95602 15.3493 5.82156 15.2785 5.67257 15.2184C5.62169 15.1971 5.55991 15.1794 5.49087 15.1617C5.41818 15.137 5.33824 15.1157 5.26192 15.0981C5.09835 15.091 4.95299 15.0733 4.87308 15.0839Z" fill="#3A3A3A"></path>
<path d="M6.21453 6.6871C7.15294 6.78864 8.09136 6.94271 9.03677 6.82716C9.15232 6.84116 9.27138 6.85517 9.38693 6.86568C10.1293 6.9252 10.8681 6.94271 11.6069 6.79915C11.817 6.75713 11.9921 6.59606 11.9746 6.28092C11.9606 5.99029 11.81 5.7767 11.5964 5.74518C11.2112 5.68566 10.8191 5.61913 10.4339 5.62613C9.81061 5.64013 9.18734 5.71017 8.56406 5.75569C7.44707 5.35301 6.30207 5.58411 5.17107 5.50007C5.12205 5.49657 5.04151 5.61913 5.017 5.70316C4.96798 5.87474 5.03101 6.0183 5.12905 6.12685C5.44419 6.48751 5.82589 6.64508 6.21453 6.6871Z" fill="#3A3A3A"></path>
<path d="M5.1256 8.40633C5.44074 8.76699 5.82591 8.92456 6.21458 8.96658C7.15299 9.06812 8.09141 9.22219 9.03682 9.10664C9.15238 9.12065 9.27143 9.13465 9.38698 9.14516C10.1293 9.20468 10.8681 9.22219 11.607 9.07863C11.8171 9.03661 11.9921 8.87554 11.9746 8.5604C11.9606 8.26977 11.81 8.05618 11.5965 8.02466C11.2113 7.96514 10.8191 7.89861 10.4339 7.90561C9.81067 7.91962 9.18739 7.98965 8.56412 8.03517C7.44712 7.63249 6.30212 7.86359 5.17112 7.77955C5.1221 7.77605 5.04156 7.89861 5.01705 7.98264C4.96803 8.15072 5.03102 8.29778 5.1256 8.40633Z" fill="#3A3A3A"></path>
<path d="M5.1256 10.6858C5.44074 11.0465 5.82591 11.204 6.21458 11.2461C7.15299 11.3476 8.09141 11.5017 9.03682 11.3861C9.15238 11.4001 9.27143 11.4141 9.38698 11.4246C10.1293 11.4842 10.8681 11.5017 11.607 11.3581C11.8171 11.3161 11.9921 11.155 11.9746 10.8399C11.9606 10.5492 11.81 10.3357 11.5965 10.3041C11.2113 10.2446 10.8191 10.1781 10.4339 10.1851C9.81067 10.1991 9.18739 10.2691 8.56412 10.3146C7.44712 9.91197 6.30212 10.1431 5.17112 10.059C5.1221 10.0555 5.04156 10.1781 5.01705 10.2621C4.96803 10.4302 5.03102 10.5773 5.1256 10.6858Z" fill="#3A3A3A"></path>
</svg>