<svg width="18" height="18" viewBox="0 0 18 18" fill="none" xmlns="http://www.w3.org/2000/svg">
<path d="M16.9666 8.47481C16.9666 12.603 13.3928 15.9496 8.98435 15.9496C7.77976 15.9496 6.6375 15.6997 5.61344 15.2523C5.10954 15.0322 1.44216 16.2592 1.00215 15.9496C0.619508 15.6804 3.45564 13.8848 3.13073 13.5567C1.80976 12.2231 1.00214 10.4373 1.00214 8.47481C1.00214 4.34658 4.5759 1 8.98435 1C13.3928 1 16.9666 4.34658 16.9666 8.47481Z" fill="white"/>
<path d="M0.805021 15.8486C0.765488 15.8745 0.72955 15.9003 0.686424 15.9188L0.628922 15.952L0.557046 15.9926L0.535482 16.0036L0.524701 16.011L0.485169 16.0368C0.456418 16.059 0.427667 16.0811 0.398916 16.107C0.0287507 16.4428 -0.0323446 16.9372 0.129378 17.3284C0.208443 17.5277 0.359384 17.7085 0.553452 17.8229C0.646892 17.8782 0.751113 17.9225 0.848147 17.941L0.923617 17.9557L0.970337 17.9631L1.01706 17.9705C1.12128 17.9853 1.3441 18 1.48066 18C1.78614 18 2.08443 17.9668 2.37553 17.9114C2.95773 17.7934 3.50759 17.5793 4.00713 17.2804C4.29105 17.1144 4.51746 16.8966 4.63606 16.7085C4.75465 16.5092 4.76903 16.3394 4.65043 16.2213C4.42761 16.0036 3.99995 16.0848 3.49681 16.2988C3.04398 16.4944 2.55882 16.6162 2.08443 16.6568C2.02333 16.6642 1.96583 16.6679 1.90474 16.6679C2.05927 16.5239 2.19943 16.369 2.32162 16.2066C2.68101 15.7379 2.93258 15.225 3.13383 14.7158L3.13742 14.7084C3.21289 14.5202 3.18414 14.2988 3.04758 14.1327L2.71335 13.7305C2.65944 13.6641 2.59835 13.5976 2.54803 13.5275L2.40069 13.3098C2.30365 13.1622 2.19584 13.0257 2.10959 12.8707L1.85442 12.4057C1.6352 11.675 1.47348 10.9444 1.38722 10.2064C1.31894 9.46463 1.32253 8.71922 1.41597 7.98487L1.50582 7.43503C1.54535 7.25422 1.59567 7.07709 1.63879 6.89627C1.67473 6.71545 1.7502 6.54201 1.8077 6.36857L1.89755 6.10657C1.92989 6.01801 1.97302 5.93682 2.00896 5.85195C2.08802 5.68589 2.15631 5.51245 2.24975 5.35377L2.53006 4.87774C2.6235 4.71906 2.73851 4.5936 2.83914 4.44968C2.89304 4.37957 2.93976 4.30945 2.99726 4.23934L3.20211 4.01793C3.29915 3.9146 3.35665 3.65998 3.33509 3.54559C3.29915 3.32049 3.06555 3.3537 2.8032 3.47916C2.58757 3.58618 2.36834 3.69688 2.17068 3.86294C1.97302 4.02531 1.7502 4.20244 1.58488 4.41647C1.41238 4.6305 1.22191 4.84453 1.08534 5.09915C0.937993 5.35008 0.790645 5.60471 0.690018 5.88516C0.625328 6.05122 0.553452 6.21728 0.492356 6.38333L0.337821 6.89996C0.312664 6.98483 0.283914 7.0734 0.26235 7.15827L0.208443 7.42396L0.100628 7.95535L0.0395323 8.49411L0.0107815 8.7635L0.00718768 9.03657L0 9.58272L0.0431261 10.1289L0.0646892 10.4019L0.111409 10.6713L0.208443 11.2101C0.255163 11.3872 0.305477 11.5607 0.35579 11.7378L0.431261 11.9998C0.460012 12.0847 0.49595 12.1695 0.528295 12.2544L0.733144 12.7637C0.812208 12.9297 0.902054 13.0884 0.984713 13.2508C1.14284 13.5792 1.36925 13.8707 1.57051 14.1696C1.65676 14.3025 1.74661 14.4316 1.84005 14.5608C1.66395 14.8966 1.46269 15.2029 1.23628 15.4538C1.1105 15.6125 0.95952 15.7453 0.805021 15.8486Z" fill="#3A3A3A"/>
<path d="M5.00153 15.8965C4.6845 15.9338 4.91202 16.2321 5.31111 16.5752C5.97502 17.1047 6.86645 17.5448 7.8735 17.761C8.88056 17.9773 9.99951 17.9699 11.0774 17.72C12.3829 17.4366 13.61 16.8213 14.6655 15.9935C14.7961 15.8853 14.9192 15.7734 15.046 15.6616L15.2362 15.4937L15.2586 15.4714L15.266 15.4676L15.2698 15.4639L15.2959 15.4378L15.3071 15.4266L15.3481 15.3856L15.4301 15.2998L15.7546 14.9568C15.8069 14.8971 15.8628 14.8486 15.915 14.7778L16.0754 14.5689L16.3962 14.1513C16.5043 14.0133 16.5789 13.8641 16.6722 13.7224C16.7617 13.577 16.8512 13.4353 16.937 13.2861L17.1608 12.8274C17.4592 12.2159 17.6569 11.5595 17.8135 10.8995C17.8508 10.7317 17.8695 10.5639 17.8956 10.3961C17.9179 10.2282 17.9552 10.0604 17.9627 9.8889L17.9888 9.37801L18 9.1207C18 9.03493 17.9925 8.94916 17.9888 8.86339C17.9515 7.49854 17.5935 6.14114 16.9407 4.94037C16.7803 4.64577 16.62 4.34744 16.4409 4.0603L16.1425 3.65009C16.0456 3.51212 15.9523 3.37041 15.833 3.24735L15.5682 2.94529L15.4339 2.7924L15.3667 2.71782L15.3518 2.69917L15.3444 2.68798L15.3406 2.68425L15.3369 2.68052L15.3071 2.65442L15.2735 2.62459L14.7289 2.11743C14.5275 1.94962 14.2888 1.77808 14.0688 1.61027C14.0128 1.56925 13.9569 1.5245 13.9009 1.48721L13.7293 1.38279L13.3825 1.17396C12.45 0.636972 11.4131 0.271519 10.3501 0.107438C9.28711 -0.0603723 8.19427 -0.0305394 7.14246 0.189478C6.09437 0.413225 5.09105 0.842073 4.21081 1.43127C3.94972 1.58417 3.73712 1.78181 3.54317 1.95708C3.44619 2.04658 3.35668 2.12862 3.27835 2.21439C3.20375 2.30388 3.14034 2.38965 3.0844 2.47169C2.86061 2.79613 2.78974 3.03106 2.94266 3.12429C3.23359 3.29583 3.90869 2.89308 4.84861 2.36355C6.54568 1.40517 8.58217 1.13294 10.462 1.50585C11.2229 1.65502 11.9502 1.92724 12.6402 2.28151L13.1438 2.56865C13.3079 2.66934 13.4496 2.78494 13.6063 2.88935C13.6846 2.94529 13.7592 2.99377 13.8375 3.05344L14.0725 3.25854L14.3075 3.46364L14.4268 3.56805L14.4492 3.5867L14.4604 3.59789L14.5089 3.65009C15.0646 4.19827 15.5234 4.83595 15.9038 5.51465C16.2731 6.20453 16.5267 6.95409 16.6834 7.72228C16.6983 7.66635 16.7132 7.61041 16.7244 7.55447C16.7169 7.61787 16.6983 7.6738 16.6834 7.72228L16.7207 8.24809C16.7356 8.42336 16.7169 8.59862 16.7207 8.77389C16.7319 9.12443 16.6685 9.47124 16.6423 9.81804L16.5454 10.3327C16.5267 10.4184 16.5155 10.5042 16.4969 10.59L16.426 10.8398C16.3775 11.0076 16.3365 11.1754 16.2805 11.3395L16.0941 11.8243C16.0418 11.9884 15.9523 12.1413 15.8777 12.2942L15.7621 12.5254C15.7248 12.6037 15.6875 12.682 15.639 12.7529L15.3667 13.1929L15.2996 13.301L15.225 13.398L15.0758 13.5956L14.9304 13.7933C14.9042 13.8268 14.8856 13.8604 14.8558 13.894L14.7588 13.9984L14.3746 14.416L14.3261 14.4682L14.3075 14.4906L14.3037 14.4943L14.2068 14.5801L14.0165 14.7554L13.8263 14.9307L13.6212 15.0873L13.416 15.2439L13.3153 15.3222L13.2072 15.3931L12.7708 15.6727L12.3157 15.9151C12.1665 16.0009 12.0024 16.0568 11.8458 16.1277C11.208 16.3925 10.5366 16.5752 9.84659 16.6647C9.15657 16.743 8.45909 16.7318 7.77653 16.6274C7.60869 16.5938 7.43338 16.5789 7.26554 16.5342L6.76574 16.4037L6.27714 16.2321C6.11302 16.1762 5.97502 16.1016 5.8221 16.0382C5.76988 16.0158 5.70647 15.9972 5.6356 15.9785C5.56101 15.9524 5.47895 15.9301 5.40062 15.9114C5.23274 15.904 5.08355 15.8853 5.00153 15.8965Z" fill="#3A3A3A"/>
<path d="M6.37838 7.04734C7.34153 7.15436 8.30468 7.31673 9.27501 7.19495C9.39361 7.20971 9.5158 7.22447 9.6344 7.23554C10.3963 7.29827 11.1546 7.31673 11.9129 7.16543C12.1285 7.12115 12.3082 6.9514 12.2902 6.61928C12.2759 6.313 12.1213 6.0879 11.9021 6.05468C11.5068 5.99195 11.1043 5.92184 10.709 5.92922C10.0693 5.94398 9.42955 6.01778 8.78985 6.06576C7.64341 5.64139 6.46822 5.88494 5.30741 5.79637C5.2571 5.79268 5.17444 5.92184 5.14928 6.0104C5.09897 6.19122 5.16366 6.34252 5.26429 6.45691C5.58773 6.837 5.9795 7.00306 6.37838 7.04734Z" fill="#3A3A3A"/>
<path d="M5.26075 8.8592C5.58419 9.23929 5.97951 9.40534 6.37843 9.44963C7.34158 9.55664 8.30473 9.71901 9.27507 9.59723C9.39366 9.61199 9.51585 9.62675 9.63445 9.63782C10.3963 9.70056 11.1546 9.71901 11.9129 9.56771C12.1286 9.52343 12.3083 9.35368 12.2903 9.02157C12.2759 8.71528 12.1214 8.49018 11.9022 8.45697C11.5068 8.39423 11.1043 8.32412 10.709 8.3315C10.0693 8.34626 9.4296 8.42007 8.7899 8.46804C7.64346 8.04367 6.46828 8.28722 5.30747 8.19866C5.25715 8.19497 5.17449 8.32412 5.14934 8.41269C5.09902 8.58981 5.16368 8.7448 5.26075 8.8592Z" fill="#3A3A3A"/>
<path d="M5.26075 11.2615C5.58419 11.6416 5.97951 11.8076 6.37843 11.8519C7.34158 11.9589 8.30473 12.1213 9.27507 11.9995C9.39366 12.0143 9.51585 12.029 9.63445 12.0401C10.3963 12.1028 11.1546 12.1213 11.9129 11.97C12.1286 11.9257 12.3083 11.756 12.2903 11.4238C12.2759 11.1176 12.1214 10.8925 11.9022 10.8593C11.5068 10.7965 11.1043 10.7264 10.709 10.7338C10.0693 10.7485 9.4296 10.8223 8.7899 10.8703C7.64346 10.4459 6.46828 10.6895 5.30747 10.6009C5.25715 10.5972 5.17449 10.7264 5.14934 10.815C5.09902 10.9921 5.16368 11.1471 5.26075 11.2615Z" fill="#3A3A3A"/>
</svg>
