<svg width="20" height="20" viewBox="0 0 20 20" fill="none" xmlns="http://www.w3.org/2000/svg">
<path d="M19.8879 7.12323L19.8716 7.08265L19.839 7.0015L19.7737 6.83918L19.2639 5.52852L19.2476 5.48794L19.2191 5.42301L19.1987 5.37838L19.1497 5.2891C19.0886 5.1836 19.0233 5.10245 18.9418 5.02535C18.7827 4.87115 18.5869 4.75753 18.3708 4.69667C18.2648 4.66826 18.1546 4.65203 18.0405 4.65203C17.9834 4.65203 17.9303 4.65609 17.8732 4.66015C17.8243 4.66826 17.7509 4.68044 17.7346 4.68449L17.3879 4.75348L16.401 4.95231C16.1073 4.58305 15.7852 4.23813 15.4303 3.92163L15.7892 2.50951L15.8015 2.4527C15.8096 2.40807 15.8137 2.35937 15.8178 2.31068C15.8219 2.22952 15.8219 2.15648 15.8137 2.08344C15.7974 1.93331 15.7566 1.78317 15.6954 1.6452C15.569 1.36927 15.3447 1.13392 15.0674 1.00001L14.1946 0.61452L13.3259 0.237145L13.2648 0.212798C13.2199 0.196567 13.171 0.184393 13.122 0.17222C13.0445 0.155989 12.9671 0.143815 12.8896 0.139758C12.7346 0.131642 12.5755 0.147873 12.4246 0.192509C12.1228 0.277723 11.8537 0.464382 11.6702 0.715965L10.932 1.88867C10.4997 1.84403 10.0592 1.83186 9.61878 1.85621L8.89284 0.659156L8.86021 0.610462C8.83166 0.569884 8.79904 0.529306 8.76233 0.488728C8.70524 0.427861 8.64814 0.371052 8.58697 0.322359C8.46054 0.220914 8.3178 0.143815 8.1669 0.0870063C7.86511 -0.0225543 7.52661 -0.0306699 7.21258 0.0748329C7.11878 0.107295 7.10247 0.115411 7.06168 0.131642L6.95565 0.17222L6.74358 0.257434L6.31536 0.427861L5.43037 0.78089L5.37735 0.805237C5.33657 0.825526 5.28763 0.849873 5.24684 0.874219C5.17343 0.918855 5.10818 0.967549 5.04701 1.0203C4.92466 1.1258 4.81862 1.25565 4.73706 1.39768C4.57392 1.67766 4.51275 2.01852 4.56169 2.33503L4.58208 2.44053L4.59432 2.49734L4.61879 2.61096L4.66773 2.83414L4.7656 3.28049L4.85941 3.69845C4.50867 3.98249 4.18649 4.299 3.89285 4.63986L3.42792 4.5303L2.95892 4.42074L2.72238 4.36798L2.60411 4.33958L2.53886 4.32741L2.51031 4.32335L2.44913 4.31523L2.37165 4.30712C2.02499 4.28277 1.69057 4.38016 1.4214 4.57899C1.28682 4.67638 1.16855 4.80217 1.07475 4.94013C1.02989 5.00912 0.989104 5.08216 0.956478 5.15926L0.907538 5.27287L0.540492 6.15747L0.365125 6.55108L0.275402 6.74991L0.242776 6.83107L0.222385 6.87976C0.21015 6.91223 0.193837 6.96903 0.181602 7.00961C0.169367 7.05425 0.165288 7.08671 0.157132 7.12729C0.108192 7.42351 0.157132 7.73596 0.291716 8.00377C0.361047 8.13768 0.450769 8.25941 0.556805 8.36492C0.654684 8.47042 0.817815 8.57187 0.850442 8.59215L1.88633 9.27386C1.84147 9.69993 1.83331 10.1301 1.85778 10.5561L0.666919 11.2662C0.401829 11.4407 0.18568 11.7207 0.0837226 12.021C-0.0223131 12.3213 -0.0304697 12.6621 0.075566 12.9746L0.430378 13.8714L0.781111 14.7519C0.911616 15.0481 1.15631 15.3119 1.44995 15.462C1.74359 15.6203 2.0984 15.669 2.42059 15.6081L3.7338 15.3281C3.99888 15.6446 4.29252 15.9408 4.60247 16.2168L4.28844 17.5315L4.28437 17.5599L4.27621 17.6167C4.26805 17.6654 4.26397 17.7263 4.26397 17.7668C4.2599 17.848 4.26397 17.9332 4.27621 18.0144C4.2966 18.1807 4.34554 18.339 4.42303 18.4891C4.56985 18.7853 4.82678 19.0369 5.13265 19.1749L6.00133 19.5401L6.87816 19.9053C7.18403 20.023 7.54292 20.0311 7.85287 19.9296C8.1669 19.8323 8.4483 19.6213 8.62775 19.3494L9.36184 18.1929C9.79822 18.2254 10.2346 18.2254 10.6669 18.1888L11.3072 19.1952L11.3643 19.2845L11.4132 19.3575L11.4581 19.4184C11.4866 19.4549 11.5152 19.4914 11.5437 19.5198L11.6212 19.5969C11.6742 19.6456 11.7313 19.6902 11.7884 19.7308C12.025 19.8891 12.3064 19.9743 12.5878 19.9702C12.7305 19.9702 12.8733 19.9459 13.0078 19.9012L13.1057 19.8647L13.1547 19.8444L13.2525 19.8039L13.64 19.6415C13.901 19.5279 14.1538 19.4184 14.3985 19.3129C14.529 19.252 14.6595 19.1952 14.786 19.1384L14.8308 19.1181C14.8471 19.11 14.892 19.0856 14.9246 19.0653C14.994 19.0248 15.0307 18.9923 15.0837 18.9517C15.1775 18.8746 15.2591 18.7813 15.3243 18.688C15.4589 18.4932 15.5323 18.27 15.5445 18.0509C15.5527 17.9413 15.5445 17.8358 15.5241 17.7344L15.5078 17.6573C15.4997 17.6289 15.4997 17.6248 15.4956 17.6086L15.4711 17.5315C15.4059 17.3245 15.3406 17.1298 15.2754 16.9593C15.0225 16.2695 14.7941 15.88 14.631 16.0017C14.4842 16.1113 14.4352 16.5698 14.4801 17.288C14.4923 17.4625 14.5127 17.6695 14.529 17.8642C14.525 17.9535 14.476 18.0306 14.4108 18.0712C14.3985 18.0793 14.37 18.0955 14.37 18.0915C14.3863 18.0833 14.3414 18.1036 14.3129 18.1118C14.321 18.1077 14.2925 18.1199 14.3333 18.1036H14.3292H14.3251L14.3129 18.1077L14.2721 18.1199L14.2272 18.1361C14.109 18.1767 13.9825 18.2213 13.8561 18.2619C13.6033 18.3512 13.3423 18.4445 13.069 18.55L12.6897 18.692C12.6041 18.7245 12.6204 18.7164 12.6 18.7204C12.5878 18.7245 12.5715 18.7204 12.5592 18.7164C12.5307 18.7123 12.5062 18.6961 12.4858 18.6798C12.4817 18.6758 12.4817 18.6758 12.4777 18.6717C12.4736 18.6636 12.4654 18.6514 12.4573 18.6433L12.3675 18.4932C12.0943 18.0306 11.8211 17.5639 11.5437 17.0973C11.4336 16.9066 11.2175 16.793 10.9809 16.8173L10.9605 16.8214C10.3243 16.8904 9.67587 16.8782 9.04374 16.7686C8.81127 16.728 8.57065 16.8254 8.43199 17.0324L8.42383 17.0486C8.08941 17.5477 7.75907 18.0468 7.42465 18.55C7.41242 18.5622 7.40834 18.5622 7.40018 18.5622C7.3961 18.5622 7.3961 18.5622 7.3961 18.5622L6.60899 18.2213L5.7811 17.8602L5.75663 17.848C5.75255 17.8439 5.75663 17.848 5.75255 17.8439V17.8399C5.88714 17.2799 6.02172 16.7199 6.1563 16.164L6.17669 16.0788V16.0747C6.23787 15.8232 6.14815 15.5513 5.92792 15.3849C5.42221 15.0035 4.97768 14.549 4.59432 14.0377L4.59024 14.0337C4.43934 13.8308 4.17425 13.7253 3.91324 13.7821L2.14734 14.1757C2.13103 14.1797 2.12287 14.1838 2.11064 14.1595L1.77621 13.3438L1.44587 12.5404C1.43364 12.5201 1.44179 12.4714 1.47034 12.4552L3.00786 11.5057L3.01602 11.5016C3.21585 11.3799 3.33412 11.1486 3.29742 10.901C3.2077 10.268 3.2077 9.62284 3.3015 8.99388V8.9817C3.33412 8.75852 3.23624 8.52317 3.03233 8.39738L1.49889 7.43162C1.45811 7.40728 1.43772 7.35858 1.45403 7.30583L1.79661 6.49021L2.14326 5.66648C2.16365 5.61779 2.21259 5.57721 2.29416 5.59344L4.0519 5.99922L4.06006 6.00328C4.2599 6.04791 4.47605 5.97893 4.60247 5.80445C4.83901 5.48794 5.1041 5.19578 5.39366 4.92796C5.59758 4.75753 5.80965 4.60334 6.03395 4.45726C6.20524 4.34364 6.30312 4.13669 6.26234 3.92568L6.25418 3.88916C6.14815 3.30484 6.04211 2.71646 5.932 2.12808C5.932 2.10779 5.94015 2.09562 5.95239 2.0875C5.95647 2.08344 5.96055 2.07939 5.9687 2.07939L5.97686 2.07533C5.97278 2.07939 5.96462 2.08344 5.96055 2.0875L6.00541 2.06721L6.84146 1.75882L7.27376 1.60057L7.48991 1.51941L7.59594 1.47883L7.64896 1.45854C7.65712 1.45043 7.67343 1.45854 7.66935 1.43825C7.66935 1.43825 7.66935 1.4626 7.66935 1.45854C7.66935 1.45854 7.67343 1.45043 7.67751 1.44637L7.68566 1.45854L7.69382 1.47072C7.62449 1.43825 7.67343 1.4626 7.66119 1.45854V1.4626L7.66527 1.47072L7.68159 1.49506L7.71013 1.54376L7.76723 1.64114L7.8855 1.83998L8.11796 2.23358L8.58697 3.02485C8.72563 3.26021 8.99887 3.40629 9.28843 3.37382L9.3129 3.36977C9.92873 3.30078 10.5609 3.32919 11.1889 3.43063C11.4785 3.47933 11.7803 3.35353 11.9475 3.09384L11.9556 3.0776L12.4491 2.31474L12.6979 1.93331L12.8202 1.74259L12.8733 1.66143L12.8855 1.66549L12.9915 1.71013L13.1995 1.7994L13.6196 1.982L14.0396 2.1646L14.2517 2.25387L14.3333 2.29039V2.29445L14.3047 2.40401L14.2517 2.62719L14.1416 3.06949L13.9255 3.95409C13.852 4.25031 13.954 4.57899 14.2109 4.78188C14.7003 5.16331 15.1367 5.60967 15.4956 6.10878C15.6791 6.36036 16.0013 6.49833 16.3276 6.42935L17.2248 6.23457L17.6734 6.13719L17.8977 6.08849L17.9793 6.07226V6.07632L18.0241 6.18182L18.1098 6.39283L18.2811 6.81484L18.4524 7.23685L18.538 7.44785L18.5747 7.53713L18.5706 7.54118L18.4728 7.60205L18.277 7.71973L17.8855 7.95914L17.1024 8.43796H17.0984C16.8374 8.59621 16.6824 8.89649 16.7232 9.21705C16.8006 9.82572 16.7884 10.4506 16.6946 11.0715C16.6498 11.3717 16.7803 11.6842 17.0535 11.8627L17.8243 12.3537L18.2117 12.6013L18.4034 12.723L18.4809 12.7717L18.4768 12.7798L18.432 12.8853L18.3422 13.0963L18.1628 13.5143L17.9834 13.9322L17.8936 14.1392L17.861 14.2122L17.8528 14.2081L17.7427 14.1797L17.5225 14.1229L17.078 14.0134L16.193 13.7943C15.8993 13.7212 15.5731 13.8186 15.3692 14.0661L15.3529 14.0864L15.2468 14.2163C15.0918 14.4029 14.9083 14.6545 14.733 14.8817C14.5617 15.109 14.3985 15.3159 14.3333 15.4295C14.1905 15.6608 14.2721 15.7136 14.5086 15.6405C14.737 15.5716 15.1122 15.3606 15.5078 15.0319C15.671 14.898 15.8259 14.7519 15.9931 14.5815L15.9972 14.5774C16.0013 14.5733 16.0054 14.5733 16.0095 14.5733C16.5315 14.7641 17.0698 14.9507 17.6285 15.1374C17.6979 15.1577 17.7631 15.1861 17.861 15.2023C17.9589 15.2185 18.0486 15.2145 18.1424 15.1982C18.33 15.1658 18.5135 15.0725 18.6481 14.9223C18.6807 14.8858 18.7134 14.8452 18.7419 14.8046C18.7705 14.7641 18.7949 14.7113 18.8112 14.6829L18.9173 14.48C18.9866 14.3461 19.0559 14.2081 19.1253 14.0742C19.2639 13.8024 19.4026 13.5264 19.5453 13.2464L19.5984 13.1409L19.6269 13.072C19.6351 13.0598 19.6473 13.0152 19.6595 12.9827C19.6962 12.8569 19.7085 12.7433 19.7003 12.6175C19.684 12.374 19.582 12.1346 19.4067 11.952C19.3618 11.9074 19.317 11.8627 19.2639 11.8262L19.1538 11.7491L18.9581 11.6112C18.8276 11.5178 18.693 11.4286 18.5625 11.3352C18.383 11.2135 18.2036 11.0877 18.0241 10.9619C18.1016 10.4547 18.1302 9.92717 18.0975 9.3956C18.4891 9.1643 18.8806 8.93707 19.2762 8.70171L19.3537 8.65708L19.3904 8.63273L19.4475 8.59621L19.4679 8.57998L19.5086 8.55158C19.5331 8.53129 19.5617 8.50694 19.582 8.49071C19.6228 8.45419 19.6595 8.41767 19.6962 8.37709C19.8349 8.21478 19.9328 8.01595 19.9736 7.809C20.0184 7.60205 20.0062 7.37887 19.9369 7.17192L19.8879 7.12323ZM7.3961 18.5541H7.40018C7.40018 18.5581 7.40018 18.5581 7.3961 18.5541C7.3961 18.5541 7.39203 18.5541 7.3961 18.5541ZM5.75663 17.8318C5.75255 17.8318 5.75663 17.8236 5.75663 17.8318C5.75255 17.8318 5.75255 17.8318 5.75663 17.8318ZM12.8569 1.54781C12.8488 1.54376 12.8447 1.54376 12.8488 1.54376H12.8447C12.8365 1.53564 12.8365 1.53564 12.8365 1.53564V1.53158L12.8488 1.53564L12.861 1.54376C12.8855 1.51129 12.8773 1.52347 12.8569 1.54781ZM17.8855 14.3583C17.8814 14.3664 17.8814 14.3664 17.8855 14.3583V14.3583ZM18.6073 12.7555L18.6114 12.7514C18.6196 12.7433 18.6196 12.7433 18.6196 12.7433H18.6236L18.6155 12.7636V12.7676C18.6196 12.7717 18.6155 12.7676 18.6114 12.7636C18.6073 12.7636 18.6073 12.7595 18.6073 12.7555ZM18.6971 7.60611L18.6889 7.61017C18.6889 7.60611 18.6889 7.60611 18.6889 7.60611C18.6971 7.60205 18.7052 7.59799 18.7134 7.59394L18.6971 7.60611Z" fill="#3A3A3A"/>
<path d="M12.6121 10.8726L12.555 11.0309C12.5224 11.1405 12.4612 11.2338 12.4205 11.3393C12.3103 11.5341 12.1921 11.7288 12.0371 11.8993C11.7435 12.2482 11.356 12.5242 10.9237 12.7108C10.8014 12.7717 10.679 12.8082 10.5689 12.8691C10.4547 12.9097 10.3528 12.9705 10.2671 13.0273C10.0918 13.1328 9.9694 13.2749 9.98979 13.4575C10.0102 13.6238 10.1407 13.7658 10.3772 13.8673C10.4955 13.9038 10.6423 13.9363 10.8055 13.9403C10.9686 13.9322 11.1521 13.9282 11.3397 13.8632C11.6864 13.774 12.0086 13.6198 12.3226 13.4412C12.6285 13.2546 12.918 13.0273 13.1668 12.7636C13.4115 12.4958 13.6358 12.2036 13.7989 11.8749C13.8886 11.7167 13.9498 11.5422 14.0191 11.3717C14.0518 11.2865 14.0722 11.1973 14.0966 11.108C14.1211 11.0187 14.1456 10.9335 14.1619 10.8321L14.1986 10.5967L14.2149 10.479L14.219 10.3857L14.2271 10.199L14.2312 10.1544V10.1301V10.1179V10.0814V10.0773V10.0692L14.2271 9.95963C14.219 9.66747 14.1823 9.37531 14.1089 9.09126C13.9661 8.52317 13.701 7.98754 13.3381 7.53307C12.6162 6.61601 11.5069 6.05197 10.3528 5.99516C9.86745 5.89778 9.31688 5.89778 8.80301 6.01951C8.28099 6.13719 7.77936 6.36848 7.34298 6.68905C6.90661 7.01367 6.5314 7.42757 6.25 7.90233L6.05832 8.26753C6.0053 8.39332 5.95636 8.52317 5.90334 8.65302C5.86256 8.78287 5.82586 8.91678 5.78915 9.05069C5.75653 9.19271 5.73613 9.3469 5.71166 9.49299L5.70351 9.54979L5.70759 9.59849L5.70351 9.6837L5.69127 9.85007L5.68719 9.89065V9.91094V9.95557V9.96369V9.97586L5.69127 10.0773L5.69943 10.2843C5.71574 10.5602 5.7606 10.8321 5.83401 11.0999C5.97675 11.6355 6.22145 12.1387 6.55179 12.581C6.88214 13.0233 7.29404 13.4006 7.76305 13.6887C7.87724 13.7658 7.99959 13.8308 8.12601 13.8916C8.24836 13.9566 8.37479 14.0093 8.5053 14.058C8.63172 14.1108 8.76631 14.1554 8.89681 14.1919L9.09665 14.2487L9.32096 14.2893C9.56565 14.338 9.79812 14.2 9.88784 14.1108C10.055 13.9241 9.86745 13.7456 9.56973 13.5914C9.07626 13.3154 8.64396 12.9908 8.26468 12.6175C7.89355 12.2361 7.5836 11.8019 7.37561 11.3271C7.2451 11.0431 7.17577 10.7347 7.14722 10.4303C7.14315 10.3532 7.12683 10.2761 7.13499 10.199L7.13907 10.0854V10.0286V10.0002V9.99209C7.15946 9.81355 7.17577 9.61066 7.21248 9.50516L7.23287 9.40777C7.24103 9.37531 7.25734 9.33879 7.2655 9.30227C7.28996 9.23329 7.30628 9.15619 7.3389 9.09126L7.42863 8.88432L7.53874 8.68954C7.69372 8.4339 7.8854 8.20666 8.10562 8.00783C8.32585 7.81306 8.57871 7.6548 8.84379 7.53307C8.9743 7.46814 9.11704 7.42757 9.2557 7.37887C9.39844 7.34641 9.5371 7.30989 9.68392 7.29772L9.79404 7.28148L9.90415 7.27743L10.0143 7.27337L10.0673 7.26931H10.0714H10.0999L10.3813 7.28554L10.573 7.31395C10.8422 7.35858 11.1399 7.45191 11.405 7.5777C11.6537 7.73596 11.874 7.93479 12.0616 8.15391C12.6692 8.8478 12.8854 9.82572 12.6529 10.6982L12.6121 10.8726Z" fill="#3A3A3A"/>
</svg>
