<svg width="64" height="65" viewBox="0 0 64 65" fill="none" xmlns="http://www.w3.org/2000/svg">
<path d="M10.1053 0.410278H53.8947C59.4759 0.410278 64 4.93457 64 10.5155V54.305C64 59.8862 59.4759 64.4103 53.8947 64.4103H10.1053C4.5243 64.4103 0 59.8862 0 54.305V10.5155C0 4.93457 4.5243 0.410278 10.1053 0.410278ZM10.1053 3.77873C6.38461 3.77873 3.36842 6.79492 3.36842 10.5156V49.5414L17.8287 35.0811L26.2497 43.5021L43.0919 26.66L60.6316 44.1997V10.5156C60.6316 6.79492 57.6155 3.77873 53.8947 3.77873H10.1053ZM26.2497 48.2658L17.8287 39.8447L3.36842 54.305C3.36842 58.0258 6.38461 61.0419 10.1053 61.0419H53.8947C57.6155 61.0419 60.6316 58.0258 60.6316 54.305V48.9634L43.0919 31.4237L26.2497 48.2658ZM18.5263 10.5156C23.1771 10.5156 26.9474 14.2858 26.9474 18.9366C26.9474 23.5874 23.1771 27.3576 18.5263 27.3576C13.8755 27.3576 10.1053 23.5874 10.1053 18.9366C10.1053 14.2858 13.8755 10.5156 18.5263 10.5156ZM18.5263 13.884C15.7358 13.884 13.4737 16.1462 13.4737 18.9366C13.4737 21.7271 15.7358 23.9892 18.5263 23.9892C21.3168 23.9892 23.5789 21.7271 23.5789 18.9366C23.5789 16.1462 21.3168 13.884 18.5263 13.884Z" fill="#DCE1E4"/>
</svg>
