<svg width="19" height="16" viewBox="0 0 19 16" fill="none" xmlns="http://www.w3.org/2000/svg">
<path d="M0.748932 0.054718H0.733329C0.413473 0.0586109 0.156028 0.319463 0.163829 0.638714C0.191133 2.88515 0.218438 5.1277 0.245744 7.37414C0.105318 9.97487 0.0351067 12.5912 0 15.223C-0.00390053 15.6279 0.319857 15.9628 0.729428 15.9706H0.748932C5.60139 16.0329 10.4928 15.9745 15.3609 15.99C15.7822 15.9939 16.1254 15.6552 16.1293 15.2308V15.223C16.1371 14.2303 16.141 13.2375 16.1488 12.2525C16.1527 11.8748 16.0162 11.283 15.9226 11.0961C15.7315 10.7263 15.5715 11.209 15.4506 11.9254C15.2946 12.8403 15.1737 13.837 15.0801 14.8921C13.6212 14.7792 12.0687 14.713 10.4967 14.6897C7.48542 14.639 4.47409 14.5923 1.45496 14.5417C1.49786 10.9754 1.50957 7.40139 1.44715 3.81565C1.45886 3.00585 1.47446 2.19993 1.48616 1.39012C5.89004 1.43684 10.2939 1.44463 14.6822 1.35508C14.69 1.61204 14.6939 1.87289 14.7017 2.12985C14.7485 3.69885 14.9279 5.00701 15.279 4.89021C15.6027 4.78509 15.8407 3.6716 15.8758 2.05977C15.8875 1.58868 15.8992 1.12148 15.907 0.646501C15.9148 0.35061 15.6808 0.109224 15.3843 0.101438H15.357C12.923 0.0469313 10.4772 -0.00368118 8.03932 0.000211716C5.61309 0.000211716 3.17906 0.023571 0.748932 0.054718Z" fill="#3A3A3A"/>
<path d="M11.6007 7.23787C11.3861 7.2223 11.1716 7.20673 10.9571 7.19505C9.97799 7.14833 9.00282 7.12497 8.02765 7.17558C8.75318 6.5838 9.4358 5.93361 10.1847 5.36908C10.2432 5.32236 10.2432 5.14717 10.212 5.04983C10.1457 4.85906 9.96629 4.79677 9.78296 4.79287C9.16665 4.78898 8.62055 5.01869 8.15247 5.35351C7.24361 6.00369 6.30744 6.62662 5.4649 7.36635L5.44149 7.38582C5.41419 7.40918 5.38688 7.44032 5.36348 7.46758C5.10993 7.77904 5.15284 8.23456 5.4649 8.49152C5.67553 8.66282 5.89007 8.82634 6.11241 8.98207C6.23333 9.10277 6.35425 9.22735 6.47907 9.34804C7.27091 10.1033 8.09396 10.8275 9.02622 11.4076C9.29147 11.5711 9.60353 11.6023 9.81416 11.3181C10.0053 11.0572 9.99359 10.738 9.77516 10.5005C9.38509 10.08 8.99112 9.65172 8.55034 9.28964C8.21878 9.01711 7.87552 8.75626 7.53226 8.4993C8.03545 8.54602 8.53864 8.58106 9.04183 8.57328C10.1847 8.5577 11.3276 8.47984 12.4705 8.42922C14.5184 8.87695 16.6131 8.62 18.6882 8.71343C18.7818 8.71733 18.9262 8.58106 18.9691 8.48762C19.0588 8.29685 18.9418 8.13723 18.7662 8.01653C18.1889 7.61552 17.4829 7.44032 16.7691 7.3936C15.0528 7.2807 13.3326 7.10939 11.6007 7.23787Z" fill="#3A3A3A"/>
</svg>
