<svg width="96" height="77" viewBox="0 0 96 77" fill="none" xmlns="http://www.w3.org/2000/svg">
<path d="M32.792 61.7846C43.4697 52.9162 43.2366 37.3616 36.8591 26.2736C36.4328 25.534 36.7957 27.7034 36.2567 27.0063C34.4803 23.451 32.0116 20.2869 28.9955 17.6999C28.2246 17.0807 29.1374 18.3318 28.4266 19.3174C25.4915 16.002 21.8338 13.4062 17.7362 11.7305C17.0482 11.42 17.9819 12.8315 17.3566 12.5679C14.8984 11.4633 12.5161 10.1969 10.2254 8.77698C9.21151 11.4633 8.6859 14.3094 8.67334 17.1809C8.53078 17.7068 7.94291 16.3359 7.7972 16.9057C6.76272 21.3421 6.29021 25.891 6.3908 30.4454C6.33509 30.9126 5.45769 29.4788 5.41144 29.9486C5.34862 34.0918 5.96889 38.2171 7.24729 42.1585C7.3601 43.1776 5.62242 41.5474 5.83462 42.5051C6.16659 44.0814 6.6964 45.6094 7.41143 47.0528C13.8529 59.7343 32.7921 61.7846 32.7921 61.7846" fill="#65C7A5"/>
<path d="M32.792 61.7846C43.4697 52.9162 43.2366 37.3616 36.8591 26.2736C36.4327 25.534 36.7957 27.7034 36.2567 27.0063C34.4803 23.451 32.0116 20.2869 28.9955 17.6999C28.2246 17.0807 29.1374 18.3318 28.4266 19.3174C25.4915 16.002 21.8338 13.4062 17.7362 11.7305C17.0482 11.42 17.9819 12.8315 17.3566 12.5679C14.8984 11.4633 12.5161 10.1969 10.2254 8.77698C9.21151 11.4633 8.6859 14.3094 8.67334 17.1809C8.53078 17.7068 7.94291 16.3359 7.7972 16.9057C6.76272 21.3421 6.29021 25.891 6.3908 30.4454C6.33509 30.9126 5.45769 29.4788 5.41144 29.9486C5.34862 34.0918 5.96889 38.2171 7.24729 42.1585C7.3601 43.1776 5.62242 41.5474 5.83462 42.5051C6.16659 44.0814 6.6964 45.6094 7.41143 47.0528C13.8528 59.7343 32.792 61.7846 32.792 61.7846Z" stroke="white" stroke-width="1.2" stroke-linecap="round" stroke-linejoin="round"/>
<path d="M33.2832 62.26C33.2832 62.26 25.1946 34.1502 15.7218 18.4961" stroke="white" stroke-width="1.2" stroke-linecap="round" stroke-linejoin="round"/>
<path d="M35.1346 37.9514C36.4054 43.4411 30.4632 53.3636 30.4632 53.3636C30.4632 53.3636 18.6196 51.7448 15.0264 47.635M22.702 22.7006C23.6091 25.0881 21.0398 29.2048 21.0398 29.2048C21.0398 29.2048 15.8621 27.903 15.1203 26.7207L22.702 22.7006ZM28.1743 27.1169C30.057 32.0728 25.8709 40.6173 25.8709 40.6173C25.8709 40.6173 13.9782 37.9148 12.4368 35.4606L28.1743 27.1169Z" stroke="white" stroke-width="1.2" stroke-linecap="round" stroke-linejoin="round"/>
<path d="M39.0522 41.7636C38.5855 46.9335 38.6971 52.1394 39.3848 57.2846C46.0106 52.9933 51.8828 47.6369 56.7643 41.4315C61.2907 35.4857 64.3208 33.1824 66.6926 24.0921C67.743 20.0052 70.2548 9.44379 71.6345 1C68.5373 3.99681 65.3812 6.90681 62.2258 9.81725C53.0001 18.3224 50.1398 17.9758 45.4113 24.5681L45.4012 24.5847C41.7594 29.626 39.5641 35.5672 39.0523 41.7663L39.0522 41.7636Z" fill="#65C7A5"/>
<path d="M39.0522 41.7636C38.5855 46.9335 38.6971 52.1394 39.3848 57.2846C46.0106 52.9933 51.8828 47.6369 56.7643 41.4315C61.2907 35.4857 64.3208 33.1824 66.6926 24.0921C67.743 20.0052 70.2548 9.44379 71.6345 1C68.5373 3.99681 65.3812 6.90681 62.2258 9.81725C53.0001 18.3224 50.1398 17.9758 45.4113 24.5681L45.4012 24.5847C41.7594 29.626 39.5641 35.5672 39.0523 41.7663L39.0522 41.7636Z" stroke="white" stroke-width="1.2" stroke-linejoin="round"/>
<path d="M61.5895 14.9393C57.5215 18.6811 53.9851 22.9629 51.079 27.6653C47.3314 33.7571 45.3566 40.7741 45.3768 47.9273" stroke="white" stroke-width="1.2" stroke-miterlimit="10" stroke-linecap="round"/>
<path d="M34.4567 59.649C31.8278 64.1245 29.7063 68.8795 28.1317 73.8258C35.9548 72.776 43.551 70.4415 50.6141 66.9163C57.882 62.8479 64.6434 57.9339 70.7577 52.2765C74.7222 48.8482 78.3382 45.1721 81.9479 41.4977C86.0756 37.1505 90.4325 33.0271 95 29.1451C90.9202 30.5313 86.8246 31.8143 82.729 33.0971C70.5655 36.4607 58.777 41.058 47.5468 46.8174L47.5304 46.8283C42.0856 49.8305 37.5644 54.2645 34.4555 59.651L34.4567 59.649Z" fill="#65C7A5"/>
<path d="M34.4567 59.649C31.8278 64.1245 29.7063 68.8795 28.1317 73.8258C35.9548 72.776 43.551 70.4415 50.6141 66.9163C57.882 62.8479 64.6434 57.9339 70.7577 52.2765C74.7222 48.8482 78.3382 45.1721 81.9479 41.4977C86.0756 37.1505 90.4325 33.0271 95 29.1451C90.9202 30.5313 86.8246 31.8143 82.729 33.0971C70.5655 36.4607 58.777 41.058 47.5468 46.8174L47.5304 46.8283C42.0856 49.8305 37.5644 54.2645 34.4555 59.651L34.4567 59.649Z" stroke="white" stroke-width="1.2" stroke-linejoin="round"/>
<path d="M79.967 37.4573C70.0662 41.573 60.4984 46.4485 51.3491 52.0403C43.7229 56.91 38.2323 61.7898 35.7604 66.6106" stroke="white" stroke-width="1.2" stroke-miterlimit="10" stroke-linecap="round"/>
<path d="M33.7318 71.4508C35.0527 62.82 28.4528 55.6021 20.8267 53.0511C20.3173 52.8812 21.3937 53.7502 20.8489 53.6474C18.5302 52.7168 16.0489 52.2597 13.551 52.3029C12.9302 52.334 13.8816 52.542 13.9584 53.3019C11.1945 52.9686 8.39108 53.2755 5.76461 54.1986C5.31155 54.3401 6.33983 54.6138 5.93567 54.7514C4.31868 55.2586 2.66984 55.6579 1 55.9467C1.6442 57.6338 2.58477 59.192 3.77729 60.5477C3.92934 60.8545 3.08105 60.4552 3.25021 60.7841C4.61415 63.303 6.29011 65.6397 8.23844 67.739C8.40696 67.9818 7.39662 67.6745 7.57006 67.9146C9.26952 69.8895 11.2828 71.5706 13.5288 72.8902C14.0071 73.3224 12.5094 73.2812 13.0087 73.6432C13.8226 74.2458 14.7093 74.7431 15.6479 75.1231C23.969 78.397 33.7318 71.4508 33.7318 71.4508Z" fill="#65C7A5"/>
<path d="M33.7318 71.4508C35.0527 62.82 28.4528 55.6021 20.8267 53.0511C20.3173 52.8812 21.3937 53.7502 20.8489 53.6474C18.5302 52.7168 16.0489 52.2597 13.551 52.3029C12.9302 52.334 13.8816 52.542 13.9584 53.3019C11.1945 52.9686 8.39108 53.2755 5.76461 54.1986C5.31155 54.3401 6.33983 54.6138 5.93567 54.7514C4.31868 55.2586 2.66984 55.6579 1 55.9467C1.6442 57.6338 2.58477 59.192 3.77729 60.5477C3.92934 60.8545 3.08105 60.4552 3.25021 60.7841C4.61415 63.303 6.29011 65.6397 8.23844 67.739C8.40696 67.9818 7.39662 67.6745 7.57006 67.9146C9.26952 69.8895 11.2828 71.5706 13.5288 72.8902C14.0071 73.3224 12.5094 73.2812 13.0087 73.6432C13.8226 74.2458 14.7093 74.7431 15.6479 75.1231C23.969 78.397 33.7318 71.4508 33.7318 71.4508Z" stroke="white" stroke-width="1.2" stroke-linecap="round" stroke-linejoin="round"/>
<path d="M33.732 71.4509C25.3683 66.1384 16.4813 61.6995 7.21097 58.2041M11.4566 56.7856C12.8795 57.5298 13.3888 60.5391 13.3888 60.5391C13.3888 60.5391 10.4107 62.0887 9.56814 61.8428L11.4566 56.7856ZM15.8734 56.5771C18.8261 58.1212 20.4232 63.8882 20.4232 63.8882C20.4232 63.8882 13.7025 67.5847 11.9533 67.0745L15.8734 56.5771ZM23.6674 58.765C26.5562 60.8161 27.9017 67.9649 27.9017 67.9649C27.9017 67.9649 21.656 72.15 18.2516 71.7184L23.6674 58.765Z" stroke="white" stroke-width="1.2" stroke-linecap="round" stroke-linejoin="round"/>
</svg>
