<svg width="20" height="20" viewBox="0 0 20 20" fill="none" xmlns="http://www.w3.org/2000/svg">
<path fill-rule="evenodd" clip-rule="evenodd" d="M10.1243 0C7.8129 0 5.9488 1.86104 5.9488 4.1687V5.82013H2.90868L1.5 20H18.5L17.133 6.7246H17.1308L17.0382 5.82013H14.3246V4.1687C14.3246 1.86104 12.4605 0 10.1491 0H10.1243ZM13.1837 5.82013V4.1688C13.1837 2.48233 11.8171 1.09556 10.1105 1.09556L10.1042 1.09552C8.40133 1.07423 7.01245 2.45856 7.01245 4.1688V5.82013H13.1837Z" fill="#3A3A3A"/>
<path fill-rule="evenodd" clip-rule="evenodd" d="M13.1837 5.82013V4.1688C13.1837 2.48233 11.8171 1.09556 10.1105 1.09556L10.1042 1.09552C8.40133 1.07423 7.01245 2.45856 7.01245 4.1688V5.82013H13.1837Z" fill="white"/>
<path d="M17 18.75H3L4 7H16L17 18.75Z" fill="white"/>
</svg>
