<svg width="20" height="21" viewBox="0 0 20 21" fill="none" xmlns="http://www.w3.org/2000/svg">
<path fill-rule="evenodd" clip-rule="evenodd" d="M5.73389 5.63245C5.73389 3.34458 7.63944 1.4756 10 1.4756C12.3606 1.4756 14.2661 3.34458 14.2661 5.63245C14.2661 7.94538 12.3589 9.81273 10 9.81273C7.64108 9.81273 5.73389 7.94537 5.73389 5.63245ZM10 0.5C7.08639 0.5 4.73389 2.80651 4.73389 5.63245C4.73389 8.08333 6.47512 10.1345 8.8188 10.6586C4.13661 11.2312 0.5 15.1605 0.5 19.8714V20.0122C0.5 20.2816 0.723858 20.5 1 20.5H19C19.2761 20.5 19.5 20.2816 19.5 20.0122V19.8714C19.5 15.1385 15.8633 11.2285 11.1823 10.6584C13.5254 10.1338 15.2661 8.08296 15.2661 5.63245C15.2661 2.80652 12.9136 0.5 10 0.5ZM18.4927 19.5244H1.50738C1.69499 15.1188 5.43712 11.5625 10 11.5625C14.5643 11.5625 18.306 15.0982 18.4927 19.5244Z" fill="#3A3A3A"/>
</svg>