<svg width="25" height="25" viewBox="0 0 25 25" fill="none" xmlns="http://www.w3.org/2000/svg">
<circle cx="12.5" cy="12.5" r="12.5" fill="#C9002E"/>
<path d="M2.36719 17.2578C2.23698 15.9557 2.1263 14.8424 2.03516 13.918C1.94401 12.9935 1.86589 12.2188 1.80078 11.5938C1.73568 10.9688 1.67708 10.474 1.625 10.1094C1.58594 9.73177 1.55339 9.45182 1.52734 9.26953C1.5013 9.07422 1.48177 8.94401 1.46875 8.87891C1.45573 8.8138 1.44922 8.77474 1.44922 8.76172V8.68359C1.44922 8.54036 1.50781 8.42318 1.625 8.33203C1.75521 8.22786 1.88542 8.17578 2.01562 8.17578C2.21094 8.17578 2.41927 8.20833 2.64062 8.27344C2.875 8.33854 3.03125 8.47526 3.10938 8.68359C3.22656 9.32161 3.30469 9.96615 3.34375 10.6172C3.39583 11.2682 3.4349 11.9193 3.46094 12.5703C3.5 13.2083 3.54557 13.8529 3.59766 14.5039C3.66276 15.1549 3.77344 15.7995 3.92969 16.4375C3.92969 16.4635 3.9362 16.5156 3.94922 16.5938C3.97526 16.6719 3.99479 16.7565 4.00781 16.8477C4.03385 16.9388 4.05339 17.0234 4.06641 17.1016C4.07943 17.1797 4.08594 17.2318 4.08594 17.2578V17.2969C4.08594 17.3099 4.09245 17.3229 4.10547 17.3359C4.10547 17.4922 4.03385 17.6484 3.89062 17.8047C3.7474 17.9609 3.59766 18.026 3.44141 18C3.40234 17.987 3.30469 17.9674 3.14844 17.9414C3.00521 17.9023 2.90755 17.8698 2.85547 17.8438C2.81641 17.8307 2.76432 17.8047 2.69922 17.7656C2.63411 17.7135 2.56901 17.6615 2.50391 17.6094C2.45182 17.5573 2.40625 17.4987 2.36719 17.4336C2.32812 17.3685 2.32812 17.3099 2.36719 17.2578ZM1.27344 3.01953C1.27344 2.92839 1.34505 2.85026 1.48828 2.78516C1.64453 2.70703 1.76172 2.66797 1.83984 2.66797C2.03516 2.66797 2.25 2.72656 2.48438 2.84375C2.73177 2.94792 2.85547 3.11068 2.85547 3.33203C2.85547 3.55339 2.82292 3.70312 2.75781 3.78125C2.70573 3.85938 2.56901 3.89844 2.34766 3.89844C2.11328 3.89844 1.8724 3.82031 1.625 3.66406C1.39062 3.50781 1.27344 3.29297 1.27344 3.01953Z" fill="white"/>
<path d="M10.3945 17.3359C10.2122 17.0755 10.056 16.7174 9.92578 16.2617C9.80859 15.793 9.69141 15.3047 9.57422 14.7969C9.47005 14.276 9.3724 13.7747 9.28125 13.293C9.1901 12.7982 9.09245 12.4076 8.98828 12.1211C8.89714 11.8216 8.79297 11.6523 8.67578 11.6133C8.55859 11.5742 8.42188 11.75 8.26562 12.1406L6.56641 17.375C6.5013 17.5573 6.42318 17.6875 6.33203 17.7656C6.24089 17.8307 6.09115 17.8633 5.88281 17.8633C5.77865 17.8633 5.66797 17.8503 5.55078 17.8242C5.43359 17.7852 5.32292 17.7331 5.21875 17.668C5.11458 17.6029 5.02344 17.5247 4.94531 17.4336C4.88021 17.3424 4.84115 17.2383 4.82812 17.1211C4.86719 16.9648 4.89974 16.6784 4.92578 16.2617C4.96484 15.8451 4.99089 15.3633 5.00391 14.8164C5.01693 14.2695 5.02344 13.6966 5.02344 13.0977C5.03646 12.4857 5.03646 11.9193 5.02344 11.3984C5.02344 10.8646 5.01693 10.4089 5.00391 10.0312C4.99089 9.64062 4.97786 9.38672 4.96484 9.26953C4.96484 9.13932 4.96484 9.00911 4.96484 8.87891C4.97786 8.73568 4.9974 8.60547 5.02344 8.48828C5.0625 8.37109 5.12109 8.27995 5.19922 8.21484C5.29036 8.13672 5.42708 8.09766 5.60938 8.09766C5.85677 8.09766 6.08464 8.20182 6.29297 8.41016C6.51432 8.61849 6.625 8.83984 6.625 9.07422C6.625 9.41276 6.60547 9.7513 6.56641 10.0898C6.54036 10.4154 6.52734 10.7474 6.52734 11.0859C6.52734 11.2943 6.52734 11.4701 6.52734 11.6133C6.52734 11.7565 6.55339 11.9323 6.60547 12.1406C6.64453 12.0365 6.70964 11.8542 6.80078 11.5938C6.89193 11.3333 6.98958 11.0599 7.09375 10.7734C7.21094 10.487 7.3151 10.2201 7.40625 9.97266C7.4974 9.71224 7.5625 9.52995 7.60156 9.42578C7.69271 9.16536 7.82943 8.91797 8.01172 8.68359C8.19401 8.4362 8.4349 8.29948 8.73438 8.27344C8.92969 8.26042 9.10547 8.3125 9.26172 8.42969C9.43099 8.54688 9.57422 8.70312 9.69141 8.89844C9.80859 9.08073 9.90625 9.27604 9.98438 9.48438C10.0625 9.67969 10.1211 9.84896 10.1602 9.99219L11.2148 14.8555L12.0352 17.082C12.0482 17.0951 12.0547 17.1341 12.0547 17.1992C12.0547 17.2513 12.0547 17.2904 12.0547 17.3164C12.0547 17.4727 12.0156 17.6289 11.9375 17.7852C11.8724 17.9284 11.7487 18 11.5664 18C11.3451 18 11.1172 17.9414 10.8828 17.8242C10.6484 17.694 10.4857 17.5312 10.3945 17.3359Z" fill="white"/>
<path d="M13.7539 13.7812C13.4674 13.8333 13.2396 13.8138 13.0703 13.7227C12.9141 13.6185 12.8034 13.4948 12.7383 13.3516C12.6732 13.1953 12.6406 13.0456 12.6406 12.9023C12.6536 12.7461 12.6862 12.6484 12.7383 12.6094C12.7773 12.5964 12.862 12.5443 12.9922 12.4531C13.1354 12.362 13.2201 12.3034 13.2461 12.2773C13.2591 12.2773 13.2721 12.2708 13.2852 12.2578C13.3112 12.2318 13.3307 12.2122 13.3438 12.1992V11.8477C13.3438 11.1185 13.2982 10.4023 13.207 9.69922C13.1289 8.98307 13.0898 8.26693 13.0898 7.55078C13.0898 7.08203 13.0964 6.59375 13.1094 6.08594C13.1354 5.57812 13.2201 5.10938 13.3633 4.67969C13.5195 4.25 13.7604 3.89844 14.0859 3.625C14.4115 3.35156 14.8802 3.21484 15.4922 3.21484C15.5964 3.21484 15.7201 3.21484 15.8633 3.21484C16.0065 3.21484 16.1367 3.23438 16.2539 3.27344C16.3841 3.29948 16.4948 3.35807 16.5859 3.44922C16.6771 3.52734 16.7227 3.64453 16.7227 3.80078C16.7227 4.03516 16.6641 4.19141 16.5469 4.26953C16.4427 4.33464 16.306 4.38021 16.1367 4.40625C15.9674 4.41927 15.7917 4.44531 15.6094 4.48438C15.4271 4.51042 15.2708 4.60807 15.1406 4.77734C15.1146 4.80339 15.082 4.875 15.043 4.99219C15.0039 5.09635 14.9844 5.16797 14.9844 5.20703C14.9583 5.29818 14.9323 5.42188 14.9062 5.57812C14.8802 5.73438 14.8542 5.89062 14.8281 6.04688C14.8151 6.20312 14.7956 6.34635 14.7695 6.47656C14.7565 6.59375 14.75 6.65885 14.75 6.67188C14.75 6.6849 14.75 6.73698 14.75 6.82812C14.75 6.90625 14.7435 7.00391 14.7305 7.12109C14.7305 7.23828 14.7305 7.36198 14.7305 7.49219C14.7305 7.60938 14.7305 7.70703 14.7305 7.78516C14.7305 8.05859 14.7305 8.3125 14.7305 8.54688C14.7305 8.78125 14.737 9.01562 14.75 9.25C14.763 9.47135 14.7826 9.69922 14.8086 9.93359C14.8346 10.168 14.8672 10.4284 14.9062 10.7148H15.0625L17.6992 9.15234C17.8815 9.11328 18.0443 9.04818 18.1875 8.95703C18.3307 8.86589 18.4935 8.82031 18.6758 8.82031C18.8581 8.82031 19.0469 8.86589 19.2422 8.95703C19.4375 9.04818 19.5352 9.19141 19.5352 9.38672C19.5352 9.52995 19.5026 9.63411 19.4375 9.69922C19.3724 9.76432 19.3203 9.85547 19.2812 9.97266C19.2292 9.98568 19.1315 10.0247 18.9883 10.0898C18.8451 10.1549 18.7474 10.2005 18.6953 10.2266C18.5911 10.2917 18.4219 10.3958 18.1875 10.5391C17.9661 10.6693 17.7318 10.8125 17.4844 10.9688C17.237 11.112 17.0091 11.2487 16.8008 11.3789C16.5924 11.5091 16.4557 11.5938 16.3906 11.6328C16.2995 11.6979 16.1888 11.776 16.0586 11.8672C15.9284 11.9583 15.7982 12.056 15.668 12.1602C15.5508 12.2513 15.4466 12.3359 15.3555 12.4141C15.2643 12.4792 15.2188 12.5117 15.2188 12.5117V12.707L15.7266 14.3672C15.7135 14.4062 15.707 14.4518 15.707 14.5039C15.7201 14.543 15.7526 14.5755 15.8047 14.6016L16.7227 17.3945C16.7878 17.6289 16.7357 17.8242 16.5664 17.9805C16.4102 18.1367 16.2279 18.2148 16.0195 18.2148C15.7852 18.2148 15.5573 18.1497 15.3359 18.0195C15.1146 17.9023 14.9714 17.7201 14.9062 17.4727L13.832 13.9375L13.7539 13.7812Z" fill="white"/>
<path d="M18.6953 15.0117L19.418 9.99219C19.444 9.82292 19.5156 9.69922 19.6328 9.62109C19.763 9.54297 19.9062 9.50391 20.0625 9.50391C20.349 9.50391 20.5768 9.58854 20.7461 9.75781C20.9154 9.91406 21.0586 10.1094 21.1758 10.3438H21.1953C21.3516 10.3438 21.4883 10.3177 21.6055 10.2656C21.7357 10.2005 21.8919 10.168 22.0742 10.168C22.4909 10.168 22.8424 10.2982 23.1289 10.5586C23.4284 10.819 23.6693 11.138 23.8516 11.5156C24.0339 11.8802 24.1641 12.2773 24.2422 12.707C24.3333 13.1367 24.3789 13.5143 24.3789 13.8398C24.3789 14.2305 24.2747 14.6667 24.0664 15.1484C23.8711 15.6302 23.6042 16.0859 23.2656 16.5156C22.9401 16.9453 22.569 17.3034 22.1523 17.5898C21.7357 17.8763 21.3125 18.0195 20.8828 18.0195C20.4922 18.0195 20.1536 17.9284 19.8672 17.7461C19.5938 17.5638 19.3659 17.3359 19.1836 17.0625C19.0143 16.776 18.8906 16.457 18.8125 16.1055C18.7344 15.7539 18.6953 15.4089 18.6953 15.0703V15.0117ZM20.3359 15.1289C20.362 15.2591 20.388 15.4089 20.4141 15.5781C20.4401 15.7474 20.4792 15.9036 20.5312 16.0469C20.5833 16.1771 20.6549 16.2812 20.7461 16.3594C20.8503 16.4245 20.9935 16.4245 21.1758 16.3594C21.3451 16.2031 21.5273 16.0273 21.7227 15.832C21.918 15.6367 22.1003 15.4284 22.2695 15.207C22.4518 14.9857 22.6016 14.7513 22.7188 14.5039C22.8359 14.2565 22.8945 13.9961 22.8945 13.7227C22.9466 13.2799 22.9141 12.8763 22.7969 12.5117C22.6797 12.1341 22.5104 11.8672 22.2891 11.7109C22.0807 11.5417 21.8398 11.5221 21.5664 11.6523C21.293 11.7695 21.0195 12.1016 20.7461 12.6484C20.5898 12.987 20.4792 13.3841 20.4141 13.8398C20.362 14.2826 20.3359 14.6927 20.3359 15.0703V15.1289Z" fill="white"/>
</svg>
