<svg width="20" height="20" viewBox="0 0 20 20" fill="none" xmlns="http://www.w3.org/2000/svg">
<g clip-path="url(#clip0)">
<path d="M17.6733 20C17.5908 20 17.51 19.9758 17.4391 19.9283L14.5833 17.985L11.7275 19.9283C11.585 20.025 11.3975 20.0242 11.2541 19.925C11.1125 19.8258 11.0466 19.6492 11.09 19.4817L11.9741 15.9917L9.3133 13.72C9.18414 13.6092 9.13497 13.4308 9.18997 13.27C9.24497 13.1092 9.3908 12.9967 9.5608 12.9875L12.9633 12.795L14.1933 9.44083C14.3141 9.1125 14.8558 9.1125 14.9758 9.44083L16.2058 12.795L19.6083 12.9875C19.7783 12.9967 19.925 13.1092 19.9791 13.27C20.0333 13.4308 19.985 13.6092 19.8558 13.72L17.195 15.9917L18.0791 19.4817C18.1225 19.6492 18.0566 19.8258 17.915 19.925C17.84 19.975 17.7575 20 17.6733 20V20ZM14.5833 17.0642C14.6658 17.0642 14.7466 17.0883 14.8175 17.1358L16.9991 18.6208L16.3216 15.945C16.2825 15.7917 16.3341 15.6292 16.4541 15.5258L18.5225 13.76L15.8825 13.61C15.7166 13.6008 15.5725 13.4933 15.515 13.3375L14.5833 10.7942L13.6508 13.3383C13.5933 13.4942 13.4491 13.6008 13.2833 13.6108L10.6433 13.7608L12.7116 15.5267C12.8325 15.63 12.8833 15.7925 12.8441 15.9458L12.1666 18.6217L14.3483 17.1367C14.42 17.0875 14.5008 17.0642 14.5833 17.0642V17.0642Z" fill="#3A3A3A"/>
<path d="M7.91667 20C7.35417 20 6.83083 19.7808 6.4425 19.3825L0.613333 13.5525C0.219167 13.1692 0 12.6458 0 12.0833C0 11.55 0.21 11.0283 0.575833 10.6517L9.96667 0.910833C10.5225 0.324167 11.275 0 12.0833 0H17.9167C19.0658 0 20 0.935 20 2.08333V7.91667C20 8.72417 19.675 9.47667 19.0858 10.0358L17.9892 11.0925C17.825 11.2517 17.5608 11.2483 17.4 11.0808C17.2408 10.915 17.245 10.6508 17.4117 10.4917L18.5108 9.43333C18.935 9.03083 19.1667 8.49333 19.1667 7.91667V2.08333C19.1667 1.39417 18.6058 0.833333 17.9167 0.833333H12.0833C11.5067 0.833333 10.9683 1.065 10.57 1.48667L1.175 11.2308C0.956667 11.455 0.833333 11.765 0.833333 12.0833C0.833333 12.4192 0.963333 12.73 1.19833 12.96L7.03583 18.7975C7.49083 19.2642 8.29417 19.275 8.755 18.8392C8.9225 18.6808 9.18667 18.6892 9.34417 18.8567C9.50167 19.0242 9.49417 19.2875 9.32667 19.4458C8.9475 19.8033 8.44667 20 7.91667 20V20Z" fill="#3A3A3A"/>
<path d="M15.8334 5.83333C14.9142 5.83333 14.1667 5.08583 14.1667 4.16666C14.1667 3.2475 14.9142 2.5 15.8334 2.5C16.7526 2.5 17.5001 3.2475 17.5001 4.16666C17.5001 5.08583 16.7526 5.83333 15.8334 5.83333ZM15.8334 3.33333C15.3734 3.33333 15.0001 3.7075 15.0001 4.16666C15.0001 4.62583 15.3734 4.99999 15.8334 4.99999C16.2934 4.99999 16.6667 4.62583 16.6667 4.16666C16.6667 3.7075 16.2934 3.33333 15.8334 3.33333Z" fill="#3A3A3A"/>
</g>
<defs>
<clipPath id="clip0">
<rect width="20" height="20" fill="white"/>
</clipPath>
</defs>
</svg>
