<svg width="36" height="36" viewBox="0 0 36 36" fill="none" xmlns="http://www.w3.org/2000/svg">
<circle cx="18" cy="18" r="17" fill="#C9002E" stroke="white" stroke-width="2"/>
<path d="M13.0846 23.9538C13.0982 24.2359 13.0261 24.734 13.028 25.2124C13.0299 25.8559 13.166 26.464 13.8241 26.464C13.843 26.464 13.861 26.4598 13.8794 26.4584C13.9539 26.463 14.0318 26.4602 14.1163 26.4389C18.7691 25.2698 22.9932 22.7896 26.7396 19.8959C26.9501 19.7331 27.0102 19.5347 26.9763 19.3482C26.9908 19.2489 26.9998 19.1497 27 19.0491C27.0002 18.8233 26.885 18.6213 26.7115 18.4925C26.6889 18.4621 26.6666 18.4319 26.6374 18.4029C23.2759 15.0771 19.361 12.1059 14.8313 10.507C14.6841 10.4552 14.5528 10.4538 14.4377 10.4838C14.1678 10.488 13.901 10.5082 13.6335 10.5571C13.2966 10.6186 13.0919 10.9728 13.1132 11.2916C13.1128 11.3059 13.109 11.3186 13.109 11.3337C13.1091 15.5417 12.8809 19.7469 13.0846 23.9538ZM14.5361 11.8916C18.6849 13.376 22.2817 16.1292 25.3872 19.1627C22.1474 21.6195 18.5096 23.7229 14.5672 24.8615C14.2788 20.5419 14.5094 16.2157 14.5361 11.8916Z" fill="white"/>
</svg>
