<svg width="18" height="18" viewBox="0 0 18 18" fill="none" xmlns="http://www.w3.org/2000/svg">
<path d="M15.1069 9.73429C14.8321 9.38429 14.9107 9.22857 15.1069 8.91571C15.1105 8.91214 17.3794 5.75071 17.6131 4.67857L17.6145 4.67786C17.7307 4.28714 17.6145 4 17.0528 4H15.1941C14.7209 4 14.5027 4.24643 14.3858 4.52214C14.3858 4.52214 13.4395 6.80643 12.1007 8.28714C11.6686 8.715 11.4688 8.85214 11.2329 8.85214C11.1168 8.85214 10.9361 8.715 10.9361 8.32429V4.67786C10.9361 4.20929 10.8037 4 10.412 4H7.48927C7.19246 4 7.01608 4.21857 7.01608 4.42214C7.01608 4.86643 7.68548 4.96857 7.7549 6.21857V8.93071C7.7549 9.525 7.64794 9.63429 7.41064 9.63429C6.77878 9.63429 5.24519 7.34071 4.33637 4.71571C4.1529 4.20643 3.97369 4.00071 3.49696 4.00071H1.63752C1.10696 4.00071 1 4.24714 1 4.52286C1 5.01 1.63186 7.43214 3.93827 10.6321C5.4754 12.8164 7.64015 14 9.60938 14C10.793 14 10.9376 13.7371 10.9376 13.285C10.9376 11.1979 10.8306 11.0007 11.4235 11.0007C11.6983 11.0007 12.1715 11.1379 13.2765 12.1914C14.5396 13.4407 14.7471 14 15.454 14H17.3128C17.8426 14 18.1111 13.7371 17.9567 13.2186C17.6032 12.1279 15.2146 9.88429 15.1069 9.73429Z" fill="#666666"/>
</svg>
