<svg width="116" height="108" viewBox="0 0 116 108" fill="none" xmlns="http://www.w3.org/2000/svg">
<path d="M73.37 107C73.1625 107 72.9634 106.931 72.8167 106.808C72.67 106.685 72.5875 106.518 72.5875 106.343L73.6492 58.3001C73.6492 58.1671 73.6973 58.0374 73.7871 57.9279C73.877 57.8184 74.0043 57.7344 74.1523 57.6869L97.8957 38.1396C98.0896 38.0773 98.3049 38.0822 98.4944 38.1532C98.684 38.2242 98.8321 38.3554 98.9063 38.5181C98.9805 38.6807 98.9746 38.8614 98.89 39.0204C98.8054 39.1794 98.649 39.3037 98.4552 39.3659L75.2141 58.7518L74.1524 103.812L95.9002 81.5772L96.0254 78.1967C96.0254 78.0226 96.1079 77.8556 96.2546 77.7325C96.4013 77.6094 96.6004 77.5402 96.8079 77.5402C97.0154 77.5402 97.2144 77.6094 97.3612 77.7325C97.5079 77.8556 97.5903 78.0226 97.5903 78.1967L97.4651 82.0289C97.4651 82.1618 97.417 82.2916 97.3272 82.4011C97.2373 82.5106 97.064 82.6638 97.064 82.6638L73.6493 106.957C73.5601 106.985 73.4654 107 73.37 107Z" fill="#3A3A3A" stroke="#3A3A3A" stroke-width="0.75"/>
<path d="M90.7075 84.2837C90.5542 84.2838 90.4042 84.246 90.2762 84.1752C90.1483 84.1043 90.0479 84.0035 89.9876 83.8852L73.9424 58.1704C73.9011 58.0892 73.8797 58.0017 73.8796 57.9134C73.8794 57.825 73.9006 57.7375 73.9417 57.6562C73.9828 57.5748 74.0431 57.5013 74.1189 57.4399C74.1948 57.3786 74.2846 57.3308 74.383 57.2992L98.3288 38.0358C98.5178 37.9751 98.7274 37.9782 98.9137 38.0444C99.1 38.1107 99.2485 38.2349 99.328 38.391L114.937 61.3792C114.978 61.4604 115 61.5478 115 61.6361C115 61.7245 114.979 61.8119 114.938 61.8933C114.897 61.9746 114.837 62.0482 114.761 62.1095C114.685 62.1709 114.596 62.2188 114.497 62.2504L90.9868 84.2404C90.8977 84.269 90.803 84.2837 90.7075 84.2837ZM75.7014 58.2827L90.7075 82.1382L112.855 61.1164L98.1848 39.4893L75.7014 58.2827Z" fill="#3A3A3A" stroke="#3A3A3A" stroke-width="0.75"/>
<path d="M61.7994 84.3236C61.7039 84.3236 61.6093 84.3089 61.5201 84.2803L1.50273 65.9283C1.4044 65.8967 1.31468 65.8488 1.23895 65.7874C1.16321 65.7261 1.10301 65.6525 1.06195 65.5712C1.02089 65.4898 0.999823 65.4024 1 65.3141C1.00018 65.2257 1.0216 65.1383 1.06299 65.0571L3.17053 60.9211L15.0026 42.2894C15.0821 42.1333 15.2306 42.0091 15.4169 41.9429C15.6032 41.8767 15.8128 41.8736 16.0018 41.9342L74.9791 57.612C75.0775 57.6435 75.1673 57.6914 75.2431 57.7527C75.3189 57.814 75.3792 57.8876 75.4203 57.9689C75.4615 58.0503 75.4826 58.1378 75.4825 58.2261C75.4823 58.3145 75.461 58.4019 75.4196 58.4832L62.5193 83.9238C62.4593 84.0424 62.359 84.1435 62.231 84.2146C62.103 84.2857 61.9529 84.3236 61.7994 84.3236ZM3.17053 64.5324L61.7247 82.4144L73.5174 59.2481L16.0018 44.0364L3.17053 64.5324Z" fill="#3A3A3A" stroke="#3A3A3A" stroke-width="0.75"/>
<path d="M73.3911 107C73.2957 107 73.201 106.985 73.1118 106.956L15.4664 89.5092C15.3184 89.4618 15.1911 89.3777 15.1013 89.2682C15.0114 89.1587 14.9633 89.0289 14.9633 88.896V69.6562C14.9633 69.4821 15.0458 69.3151 15.1925 69.1919C15.3392 69.0688 15.5383 68.9997 15.7458 68.9997C15.9533 68.9997 16.1523 69.0688 16.299 69.1919C16.4458 69.3151 16.5282 69.4821 16.5282 69.6562V87.9168L72.6087 104.863L73.6614 58.482L47.8246 51.8755C47.6308 51.8132 47.4744 51.6889 47.3898 51.5299C47.3052 51.3709 47.2993 51.1902 47.3735 51.0276C47.4477 50.865 47.5958 50.7337 47.7854 50.6627C47.9749 50.5918 48.1902 50.5868 48.3841 50.6491L74.7232 57.4164C74.8712 57.4639 74.9986 57.5479 75.0884 57.6574C75.1782 57.7669 75.2263 57.8967 75.2263 58.0296L74.1736 106.343C74.1736 106.517 74.0912 106.684 73.9444 106.807C73.7977 106.93 73.5987 107 73.3911 107Z" fill="#3A3A3A" stroke="#3A3A3A" stroke-width="0.75"/>
<path d="M15.9397 42.9649C15.7575 42.9668 15.5802 42.9148 15.4385 42.8177C15.2967 42.7206 15.1994 42.5846 15.1632 42.4331C15.1271 42.2816 15.1544 42.1241 15.2405 41.9879C15.3265 41.8517 15.4659 41.7452 15.6347 41.6869L42.4611 24.9082C42.5559 24.8727 42.6581 24.8536 42.7617 24.852C42.8653 24.8503 42.9682 24.8661 43.0645 24.8985C43.1609 24.9309 43.2486 24.9792 43.3228 25.0406C43.3969 25.102 43.4559 25.1753 43.4964 25.2562C43.5369 25.3372 43.558 25.4241 43.5585 25.512C43.559 25.5999 43.5389 25.687 43.4995 25.7683C43.46 25.8496 43.4018 25.9234 43.3284 25.9854C43.255 26.0475 43.1678 26.0965 43.0719 26.1297L16.2455 42.9085C16.149 42.9446 16.045 42.9638 15.9397 42.9649Z" fill="#3A3A3A" stroke="#3A3A3A" stroke-width="0.75"/>
<path d="M98.1035 39.1066C97.9984 39.1065 97.8943 39.0886 97.7976 39.0541L71.7978 32.737C71.6067 32.669 71.4556 32.5401 71.3777 32.3786C71.2999 32.2171 71.3017 32.0363 71.3827 31.876C71.4638 31.7156 71.6174 31.5888 71.8099 31.5235C72.0023 31.4582 72.2178 31.4597 72.4089 31.5277L98.4087 37.8421C98.575 37.9012 98.7119 38.0067 98.7961 38.1408C98.8803 38.2748 98.9066 38.4292 98.8706 38.5777C98.8346 38.7262 98.7384 38.8597 98.5985 38.9555C98.4585 39.0513 98.2834 39.1035 98.1027 39.1033L98.1035 39.1066Z" fill="#3A3A3A" stroke="#3A3A3A" stroke-width="0.75"/>
<line x1="1" y1="-1" x2="11.7995" y2="-1" transform="matrix(-0.871434 0.490829 0.274732 0.961402 104.903 2.58716)" stroke="#3A3A3A" stroke-width="2" stroke-linecap="round" stroke-linejoin="round"/>
<line x1="1" y1="-1" x2="7.7505" y2="-1" transform="matrix(-0.998709 0.0517881 0.103525 0.99456 101.658 13.6245)" stroke="#3A3A3A" stroke-width="2" stroke-linecap="round" stroke-linejoin="round"/>
<line x1="1" y1="-1" x2="9.98245" y2="-1" transform="matrix(-0.879752 -0.475188 -0.297398 0.95482 101.689 23.2952)" stroke="#3A3A3A" stroke-width="2" stroke-linecap="round" stroke-linejoin="round"/>
<line x1="1" y1="-1" x2="11.7995" y2="-1" transform="matrix(0.81526 -0.579096 -0.373873 -0.92748 19.476 23.6086)" stroke="#3A3A3A" stroke-width="2" stroke-linecap="round" stroke-linejoin="round"/>
<line x1="1" y1="-1" x2="7.75065" y2="-1" transform="matrix(0.9878 -0.15573 -0.207085 -0.978323 21.5467 12.2932)" stroke="#3A3A3A" stroke-width="2" stroke-linecap="round" stroke-linejoin="round"/>
<line x1="1" y1="-1" x2="9.98259" y2="-1" transform="matrix(0.924671 0.380767 0.195808 -0.980642 20.5037 2.67871)" stroke="#3A3A3A" stroke-width="2" stroke-linecap="round" stroke-linejoin="round"/>
<path d="M86.0647 8.53615C82.4107 -2.50889 63.8517 -2.87166 60.6046 7.65895C56.2352 -0.903579 43.7874 -1.06677 39.0467 8.18235C32.5097 20.9357 46.4637 36.6834 57.7171 41.5391C57.782 41.5668 57.8454 41.5793 57.9067 41.5826C58.0157 41.7676 58.1789 41.9193 58.4022 41.9785C60.343 42.4932 63.423 39.8152 64.8827 38.9403C66.4523 37.9998 68.1108 37.09 69.7348 36.1344C69.8201 36.1798 69.903 36.2338 69.9896 36.2751C70.4822 36.5138 70.9609 35.9897 70.6839 35.5677C71.8707 34.8455 73.0252 34.0902 74.0961 33.2681C81.634 27.483 89.3781 18.5505 86.0647 8.53615ZM83.4383 8.044C82.9453 7.68815 82.4757 7.37175 82.1256 7.10992C79.8746 5.42647 77.5333 3.8542 75.1648 2.32908C78.6031 2.90116 81.7626 4.81211 83.4383 8.044ZM73.6789 2.17459C73.7056 2.23916 73.7457 2.3009 73.8181 2.34906C77.6669 4.89691 81.2015 7.57952 84.4088 10.7889C84.4703 11.0786 84.5334 11.3676 84.5748 11.672C84.5973 11.8377 84.6092 12.0027 84.625 12.1677C82.4181 10.534 80.0319 9.1026 77.8652 7.40377C75.8077 5.79026 73.8368 4.04814 72.0209 2.17383C72.573 2.13719 73.1269 2.14436 73.6789 2.17459ZM57.9151 40.5789C53.8339 38.2498 49.6638 34.7161 46.342 30.5753C46.8045 31 47.2581 31.4089 47.6821 31.7976C50.868 34.7192 54.5135 38.0215 58.2792 40.3434C58.1253 40.3919 57.9977 40.4685 57.9151 40.5789ZM59.4395 39.9612C56.8846 37.0216 53.0744 34.7981 50.0649 32.3246C47.0332 29.8331 44.2729 27.2376 42.1373 24.029C41.4339 22.5871 40.8682 21.1138 40.4526 19.6289C43.1318 23.3237 46.522 26.7052 49.7449 29.9261C53.0538 33.232 57.1788 37.0086 61.8062 38.497C61.0273 39.0491 60.1936 39.6102 59.4395 39.9612ZM64.7792 36.5144C59.8942 34.2588 55.7576 29.9232 51.9307 26.3655C49.5329 24.1358 47.2106 21.8275 44.9736 19.4459C43.6538 18.041 42.495 16.0357 40.9907 14.8472C40.8779 14.7581 40.7364 14.8183 40.72 14.9561C40.5566 16.317 42.6077 18.1237 43.4133 19.0737C45.8126 21.9031 48.4744 24.5419 51.1352 27.1376C53.8664 29.8023 56.707 32.3712 59.7186 34.7356C60.7195 35.5213 62.0815 36.7503 63.4903 37.3147C63.2667 37.4618 63.0288 37.6247 62.7685 37.8102C62.7358 37.7792 62.7051 37.7469 62.6592 37.7231C58.1263 35.3733 54.2698 32.6028 50.5417 29.1534C46.9883 25.8659 44.0084 21.9418 40.3406 18.7924C40.3061 18.7629 40.2654 18.755 40.225 18.7509C39.8633 17.2211 39.6669 15.6822 39.6843 14.153C39.6959 13.1172 39.8538 12.1024 40.1318 11.1294C49.0275 19.0765 56.9604 27.9903 66.0362 35.745C65.6167 36.0002 65.1993 36.2592 64.7792 36.5144ZM67.2504 35.0002C58.0284 27.1561 49.9981 17.9974 40.2533 10.7407C40.4977 9.9857 40.8219 9.26221 41.2114 8.5774C45.6305 14.7637 51.5397 19.74 57.1838 24.8478C59.702 27.1269 62.1119 29.5151 64.6161 31.8093C65.5953 32.7063 66.612 33.7864 67.7085 34.7195C67.5556 34.813 67.403 34.9067 67.2504 35.0002ZM69.0492 33.8984C60.0996 25.0996 49.342 17.8634 41.5319 8.04324C41.8814 7.49908 42.2825 6.99028 42.7184 6.51273C50.5184 16.4226 61.4112 23.5607 69.4391 33.313C69.5199 33.4113 69.6097 33.4649 69.7013 33.4987C69.4837 33.6317 69.2664 33.7651 69.0492 33.8984ZM71.5095 32.3909C71.1732 32.5982 70.8352 32.8039 70.4981 33.0106C70.5564 32.8136 70.5424 32.5936 70.3845 32.3955C62.5174 22.5205 51.5243 15.571 43.125 6.14689C43.1157 6.13638 43.1041 6.13254 43.0935 6.12408C43.5352 5.6842 44.0181 5.28479 44.5303 4.92177C53.4942 13.9229 62.4039 23.1233 71.8424 31.6439C72.037 31.8199 72.2596 31.8403 72.4573 31.7822C72.141 31.9918 71.8245 32.1967 71.5095 32.3909ZM72.8151 31.5442C72.9957 31.3203 73.0405 31.0046 72.7633 30.7497C63.4507 22.1985 54.998 12.4651 45.07 4.56079C45.7738 4.12167 46.5371 3.76479 47.3458 3.49143C50.8345 9.30551 56.5808 13.8222 61.7378 18.1798C64.2887 20.3352 66.9101 22.4147 69.1416 24.8854C70.3333 26.2048 72.3354 28.9756 74.221 29.3381C74.6199 29.4147 75.0262 29.015 74.7772 28.6356C73.8043 27.1499 72.0011 25.943 70.7428 24.6713C68.4522 22.3571 66.0761 20.2573 63.5376 18.1888C57.8945 13.5898 52.2076 9.19047 47.9197 3.31568C48.1333 3.25676 48.3459 3.19553 48.5655 3.14941C53.6217 2.09005 57.3361 5.61247 59.2262 9.68442C58.2277 8.74675 57.2313 7.80728 56.2133 6.88959C54.6656 5.49462 52.9558 3.60365 50.8281 3.19886C50.6454 3.16402 50.5319 3.39587 50.6993 3.49528C52.9049 4.80315 54.9125 7.08814 56.7574 8.82668C59.7233 11.6218 62.5805 14.5265 65.4464 17.4171C67.6224 19.6119 69.795 21.807 71.9546 24.0167C72.8924 24.9761 75.4655 28.4937 77.2093 27.9921C77.2133 27.991 77.2151 27.989 77.2188 27.9877C75.8159 29.3191 74.3189 30.5202 72.8151 31.5442ZM77.5277 27.701C77.594 27.4815 77.4723 27.2119 77.2101 27.1097C75.0185 26.2551 72.7227 22.8856 71.1317 21.2572C68.9512 19.0255 66.6907 16.8671 64.4558 14.6869C63.3525 13.6106 62.2418 12.5412 61.1276 11.4755C61.5089 11.3092 61.7784 10.9252 61.6404 10.3928C61.606 10.2606 61.5622 10.1366 61.5247 10.0075C61.5891 9.79279 61.6686 9.59039 61.7438 9.38441C62.5628 11.9284 66.2878 14.4084 68.0008 15.8738C71.7477 19.0791 75.7443 22.0004 79.4147 25.2907C79.4896 25.3584 79.5694 25.3966 79.6496 25.4201C78.9804 26.2141 78.2709 26.9786 77.5277 27.701ZM80.2967 24.6218C80.2727 24.5839 80.2566 24.5447 80.2202 24.5083C77.1629 21.4627 73.4569 18.962 70.0611 16.2899C67.4123 14.206 63.6751 11.735 62.0356 8.66169C62.3566 7.94434 62.7519 7.29336 63.1967 6.69437C63.4539 7.39353 64.1269 8.45725 64.2736 8.63171C65.6167 10.2334 67.1736 11.5892 68.8028 12.9104C72.8518 16.1941 76.6668 19.7772 80.7899 22.9614C81.0135 23.1341 81.2717 23.1144 81.4669 23.0029C81.0988 23.5543 80.7097 24.0951 80.2967 24.6218ZM81.7552 22.5605C81.7552 22.4385 81.7055 22.3115 81.5772 22.1967C77.4285 18.4744 73.0976 15.1157 68.6827 11.7145C66.786 10.2529 64.7993 8.64427 63.668 6.52938C63.6403 6.47712 63.603 6.37746 63.556 6.26474C63.6202 6.29702 63.6783 6.3398 63.744 6.36977C63.7879 6.39309 63.8243 6.33186 63.7828 6.30521C63.7063 6.25577 63.645 6.224 63.5827 6.19121C63.9278 5.78104 64.3027 5.40444 64.6992 5.05652C67.0532 8.44572 70.1121 11.4386 73.0772 14.2877C75.3892 16.5094 78.9825 20.7758 82.3128 21.6179C82.1327 21.9349 81.9524 22.2513 81.7552 22.5605ZM82.7383 20.8337C81.7335 19.677 80.1085 18.8516 78.9101 17.9139C77.1513 16.5376 75.4684 15.0658 73.8078 13.5804C70.7138 10.8135 67.7998 7.85724 65.2138 4.63867C65.5657 4.36634 65.9359 4.12013 66.3166 3.89212C69.2469 6.57038 72.098 9.32318 74.999 12.0309C77.532 14.3948 80.4216 17.2647 83.6806 18.662C83.6875 18.665 83.6951 18.6643 83.7023 18.6668C83.4287 19.4016 83.1056 20.1248 82.7383 20.8337ZM84.0035 17.7638C81.2541 15.5979 78.348 13.6613 75.682 11.3679C72.7089 8.81079 69.8819 6.09155 66.8628 3.58597C67.4212 3.29135 68.0047 3.04514 68.6038 2.83968C70.992 5.51434 73.5944 7.98969 76.3162 10.3474C78.5474 12.2802 81.4531 15.2121 84.394 16.2545C84.2889 16.7618 84.1582 17.2652 84.0035 17.7638ZM84.5867 15.0527C82.214 13.1395 79.3864 11.5946 76.9997 9.68416C74.259 7.49037 71.6006 5.15875 69.1284 2.67341C69.7982 2.47562 70.4875 2.34471 71.1832 2.25478C73.0102 4.35301 75.0259 6.26602 77.1587 8.08961C79.4012 10.007 81.9611 12.2727 84.6836 13.5747C84.6762 14.0702 84.6461 14.5634 84.5867 15.0527Z" fill="#DD0330"/>
</svg>
